<?xml version="1.0" standalone="no"?>
<!DOCTYPE svg PUBLIC "-//W3C//DTD SVG 1.1//EN" "http://www.w3.org/Graphics/SVG/1.1/DTD/svg11.dtd" >
<svg xmlns="http://www.w3.org/2000/svg">
<metadata></metadata>
<defs>
<font id="lane_-_poshregular" horiz-adv-x="521" >
<font-face units-per-em="1000" ascent="800" descent="-200" />
<missing-glyph horiz-adv-x="623" />
<glyph horiz-adv-x="1000" />
<glyph horiz-adv-x="1000" />
<glyph unicode="&#xd;" horiz-adv-x="500" />
<glyph unicode=" "  horiz-adv-x="623" />
<glyph unicode="&#x09;" horiz-adv-x="623" />
<glyph unicode="&#xa0;" horiz-adv-x="623" />
<glyph unicode="!" horiz-adv-x="307" d="M133 169h6l47 -47h38l9 553l-47 47v6h-62zM134 718h42l-9 -539h-24zM123 47q0 -47 23 -55l42 -42q6 -6 16 -6q29 0 29 54q0 35 -12 47l-41 41q-8 18 -26 18q-31 0 -31 -57zM133 47q0 47 21 47q22 0 22 -47t-22 -47q-21 0 -21 47z" />
<glyph unicode="&#x22;" horiz-adv-x="259" d="M165 710v-241h6l47 -47h48v235l-47 47v6h-54zM40 710v-241h6l47 -47h48v235l-47 47v6h-54zM84 700v-221h-34v221h34zM209 700v-221h-34v221h34z" />
<glyph unicode="#" horiz-adv-x="534" d="M233 580l-40 -109l-86 -1l-18 -56h7l47 -47h12l-26 -74h-75l-18 -56h7l47 -47h2l-22 -64h7l47 -47h61l41 111h48l-22 -64h7l47 -47h62l39 111h85l13 50l-48 47l2 6h-17l27 75l70 -1l17 50l-48 48l2 5h-3l20 57l-48 48l2 5h-67l-40 -109h-48l21 56l-48 48l2 5h-68z M287 570l-40 -109h134l40 109h46l-39 -109l68 -1l-12 -36l-70 1l-50 -142h82l-10 -36h-84l-39 -111h-47l40 111h-135l-41 -111h-46l40 111h-74l11 36h75l52 142l-85 -1l11 36l86 1l40 109h47zM185 283h133l49 142h-133zM289 368h47l-26 -75h-47z" />
<glyph unicode="$" horiz-adv-x="573" d="M161 -6l1 -1q10 0 24 -14q19 -17 23 -20v-73h6l47 -47h50v28l28 -28h50v93q80 12 129 55q67 55 67 154q0 72 -47 119l-2 2v-1l-21 21q-21 34 -57 57q-19 12 -69 31v272q31 -9 47 -19q29 -42 30 -109h6l47 -47h46q-4 104 -61 159l-27 26q-34 50 -88 71v73l-47 47v6h-56 v-28l-22 22v6h-56v-112q-72 -18 -113 -66q-43 -49 -43 -124q0 -78 54 -126q9 -9 18 -14l28 -29q3 -3 6 -5q20 -21 64 -37l-14 4v-302q-23 8 -43 23q-26 46 -31 115l-47 46v7h-53q8 -125 77 -190q9 -11 21 -18zM333 283v-266q71 11 114 52q48 45 48 113q0 83 -67 125 q-24 14 -144 52l-13 4q-131 41 -157 65q-51 46 -51 119q0 84 59 137q39 35 97 45v110h36v-105q4 1 12 1h21q6 0 9 -1v105h36v-109q79 -12 125.5 -68t50.5 -138h-32q-2 69 -40 116.5t-104 60.5v-280l-36 10v276h-31q-8 0 -11 -1v-260l-36 10v245q-124 -30 -124 -154 q0 -56 44 -97q29 -26 142 -58q2 -1 5.5 -1.5t8.5 -2.5q17 -5 41 -12t55 -17q21 -8 36.5 -15t25.5 -14q76 -48 76 -139q0 -88 -56 -142q-50 -49 -140 -61v-92h-36v90h-7q-8 0 -17 0.5t-18 1.5v-92h-36v98q-80 18 -125 81q-43 58 -49 144h33q6 -95 64 -150q33 -31 77 -45v303 l36 -10v-300q18 -3 36 -3h6v278zM287 305v-7l-22 22v2q22 -10 54 -16l13 -4l34 -10l34 -10q20 -7 36 -13t29 -13q20 -32 20 -74q0 -97 -95 -139v196l-47 47v6zM152 497q0 82 57 120v-169l7 -2l33 -35q-26 7 -47.5 15.5t-38.5 18.5q-11 22 -11 52zM312 403l12 -12l-12 3v9z M536 263v-1h1zM294 398h-1h1z" />
<glyph unicode="%" horiz-adv-x="727" d="M510 762l-132 -285q0 5 1 10v10q0 70 -37 120q-8 10 -18 21l-27 27q-1 1 -1.5 2t-1.5 2q-44 60 -110 60q-68 0 -110 -59q-39 -53 -39 -123q0 -69 38 -122q20 -27 42 -41l28 -28q38 -38 91 -38q48 0 85 31l-166 -358h8l47 -47h50l353 765l-48 47l3 6h-56zM396 175 q0 -69 37 -121q18 -25 40 -40l30 -29q38 -38 91 -38q68 0 109 56q37 52 37 122q0 86 -56 142l-26 26q-1 1 -1.5 2t-1.5 2q-43 61 -111 61q-69 0 -111 -59q-37 -52 -37 -124zM406 175q0 67 35 117q39 56 103 56q62 0 103 -57q36 -50 36 -116q0 -67 -35 -117q-39 -55 -104 -55 q-62 0 -103 56q-35 50 -35 116zM45 547q0 66 36 116q41 56 103 56q63 0 102 -56q36 -51 36 -116q0 -66 -35 -116q-39 -56 -103 -56q-62 0 -103 56q-36 49 -36 116zM76 547q0 -52 27 -94q31 -48 81 -48q48 0 80 48q27 42 27 94q0 53 -27 94q-30 47 -80 47q-51 0 -81 -47 q-27 -41 -27 -94zM437 175q0 -54 26 -94q32 -47 81 -47t81 47q26 41 26 94q0 54 -26 94q-32 47 -81 47q-53 0 -81 -46q-26 -41 -26 -95zM550 752l-346 -752h-35l347 752h34zM133 497q0 51 25 89q28 45 76 45q11 0 26 -5q21 -36 21 -79q0 -47 -26 -88h1q-29 -44 -72 -44 q-19 0 -35 8q-16 33 -16 74zM494 125q0 54 25 91q28 43 75 43q17 0 26 -4q21 -38 21 -80q0 -47 -25 -87h1q-29 -44 -73 -44q-19 0 -35 8q-15 36 -15 73z" />
<glyph unicode="&#x26;" horiz-adv-x="609" d="M518 334q0 -97 -26 -160q-32 -74 -107 -119q-59 -35 -118 -35q-55 0 -99 29q-23 41 -23 95q0 64 55 120q23 24 57 45.5t80 40.5q149 63 149 184q0 64 -38 102l-32 31q-41 62 -125 62q-70 0 -112 -41t-42 -111q0 -41 35 -90q23 -31 43 -45l10 -10q-180 -84 -180 -239v-4 q0 -98 66 -158q10 -11 21 -18l31 -29q59 -59 163 -59q119 0 209 103l32 -37h4l47 -47h58l-107 131q45 78 47 206l-47 47v6h-51zM559 324q-2 -120 -48 -199l101 -125h-41l-79 96q-93 -114 -216 -114q-96 0 -160 57q-62 58 -61 154q4 169 217 248q-10 -2 -13 -2q-42 0 -79 54 q-33 46 -33 84q0 66 39 104t105 38q63 0 100.5 -36t37.5 -99q0 -117 -145 -178q-94 -40 -139 -87q-57 -60 -57 -125q0 -80 49 -132t130 -52q68 0 130 39q64 41 95 102q36 67 36 173h31zM304 469q33 1 65 42q29 38 29 73q0 49 -31 78t-80 29q-45 0 -75.5 -27.5t-30.5 -72.5 q0 -43 32 -84q33 -40 76 -40q2 0 6 0.5t9 1.5zM302 479q-5 -1 -8 -1.5t-5 -0.5q-20 0 -38 9q-13 25 -13 55q0 42 28.5 67.5t70.5 25.5q27 0 42 -7q9 -20 9 -43q0 -39 -32 -73q-32 -32 -52 -32h-2z" />
<glyph unicode="'" horiz-adv-x="134" d="M40 710v-241h6l47 -47h48v235l-47 47v6h-54zM84 700v-221h-34v221h34z" />
<glyph unicode="(" horiz-adv-x="288" d="M297 -275h51q-161 239 -161 487q0 246 152 461l-48 47q1 1 2 3t2 3h-60q-148 -220 -148 -468q0 -251 159 -486h4zM251 -218q-154 227 -154 476q0 246 143 458h35q-145 -205 -145 -454q0 -250 155 -480h-34z" />
<glyph unicode=")" horiz-adv-x="288" d="M4 -228h5l47 -47h38q158 236 158 483t-146 465l-41 40q-2 4 -4 7l-4 6h-59q154 -218 154 -464q0 -247 -154 -476zM6 -218q156 229 156 480q0 249 -145 454h35q143 -212 143 -458q0 -244 -155 -476h-34z" />
<glyph unicode="*" horiz-adv-x="500" d="M168 568q-62 -36 -62 -58q0 -15 13 -18l44 -43q4 -4 13 -4q18 0 48 15q6 -38 23 -41l42 -42q5 -5 11 -5q25 0 25 83q0 11 -0.5 20t-1.5 17q14 -11 31 -18l1 -1q46 -28 69 -28q17 0 17 15q0 9 -11 20l-38 37q-5 12 -24 27l12 7q61 36 61 55q0 7 -4 11l-43 43q-5 14 -20 14 q-16 0 -52 -18q-3 22 -11 33l-42 41q-6 17 -19 17q-28 0 -28 -86v-17q0 -10 1 -15q-3 2 -7.5 4.5t-10.5 6.5h2q-58 34 -81 34q-20 0 -20 -18q0 -16 35 -42l29 -28q2 -3 10 -11l-7 -3.5t-5 -3.5zM173 559q31 18 51 24q-20 6 -51 24q-57 33 -57 49q0 8 10 8q15 0 65 -27 q14 -8 26 -15.5t20 -15.5q-2 11 -3.5 24.5t-1.5 30.5q0 76 18 76t18 -76q0 -17 -1.5 -30.5t-3.5 -24.5q8 7 19.5 15t26.5 16q48 27 65 27q10 0 10 -8q0 -16 -57 -49q-32 -18 -51 -24q19 -6 51 -24q57 -33 57 -49q0 -8 -10 -8q-17 0 -65 27q-15 8 -26.5 16t-19.5 15 q2 -11 3.5 -24.5t1.5 -30.5q0 -76 -18 -76t-18 76q0 17 1.5 30.5t3.5 24.5q-8 -8 -20 -15.5t-26 -15.5q-50 -27 -65 -27q-10 0 -10 8q0 16 57 49zM249 581h2l2 2l-2 2h-2l-2 -2z" />
<glyph unicode="+" horiz-adv-x="833" d="M392 606v-283h-278v-50h6l47 -47h225v-235h6l47 -47h44v282h277v44l-47 47v6h-230v230l-47 47v6h-50zM432 596v-283h277v-30h-277v-283h-30v283h-278v30h278v283h30z" />
<glyph unicode="," horiz-adv-x="260" d="M75 51q0 -32 28 -48l16 -15v-116h6l47 -47h49v234l-47 47v6h-55v-6q-44 -12 -44 -55zM85 51q0 19 13 33.5t31 14.5v3h35v-220h-35v121q-18 0 -31 15t-13 33z" />
<glyph unicode="-" horiz-adv-x="603" d="M566 226v44l-47 47v6h-405v-50h6l47 -47h399zM509 283h-385v30h385v-30z" />
<glyph unicode="." horiz-adv-x="284" d="M103 41q0 -47 23 -55l42 -42q6 -6 17 -6q29 0 29 54q0 34 -12 46l-40 40q-7 19 -27 19q-32 0 -32 -56zM113 41q0 46 22 46t22 -46t-22 -46t-22 46z" />
<glyph unicode="/" horiz-adv-x="292" d="M292 748l-323 -840h8l46 -47h50l321 834l-47 47l2 6h-57zM333 738l-315 -820h-33l314 820h34z" />
<glyph unicode="0" d="M29 340q0 -253 117 -335l28 -27q53 -53 136 -53q128 0 187 126q42 93 42 239q0 221 -92 313l-27 27q-58 79 -160 79q-129 0 -188 -128q-43 -93 -43 -241zM39 340q0 141 41 234q56 125 180 125q125 0 181 -125q41 -93 41 -234t-41 -235q-56 -123 -181 -123t-180 124 q-41 93 -41 234zM73 340q0 -127 32 -211q47 -119 156 -119q187 0 187 330q0 329 -187 329q-110 0 -156 -118q-32 -84 -32 -211zM162 82h-1q-31 86 -31 208q0 128 31 208h1q45 114 149 114q38 0 70 -17q15 -20 26 -49q31 -78 31 -206q0 -320 -177 -320q-48 0 -82 24 q-10 18 -17 38zM217 176l36 -23l145 240l-48 47l3 4l-42 27l-149 -246l17 -11zM177 228l137 228l24 -15l-137 -228z" />
<glyph unicode="1" d="M148 470l5 6l48 -48l63 72l1 -509h6l47 -47h47v692l-47 47v6h-39l-5 5l-126 -148v-76zM158 542l116 138l1 -1h33v-679h-33l-1 630l-116 -133v45z" />
<glyph unicode="2" d="M384 403l-375 -412h10l47 -47h455v44l-47 46v6h-255l271 300l-2 1q37 52 37 120q0 90 -52 139l-28 27q-54 81 -172 81q-100 0 -156.5 -56.5t-56.5 -156.5v-19h6l47 -47h49v18q0 76 42.5 119.5t118.5 43.5q45 0 78 -18q21 -35 21 -84q0 -62 -38 -105zM391 396 q41 46 41 112q0 73 -43 116t-116 43q-79 0 -123.5 -45.5t-44.5 -124.5v-11h-35v9q0 97 53 150t150 53q90 0 142.5 -49.5t52.5 -137.5q0 -76 -45 -128h1l-318 -353h358v-30h-432z" />
<glyph unicode="3" d="M253 24q-58 0 -95 24q-17 33 -21 72l-47 47q-1 1 -1 8l-50 -23q17 -98 82 -144l29 -27q55 -54 154 -54q103 0 165 58q64 57 64 159q0 79 -49 143q-4 5 -7 8.5t-7 7.5l-25 24q0 1 -11 15q78 30 78 150q0 69 -41 110l-31 30q-7 10 -15.5 19.5t-19.5 17.5q-50 38 -137 38 q-161 0 -204 -138l11 -6l43 -42l43 -21q33 110 150 110q53 0 88 -15q11 -25 11 -54q0 -126 -158 -126h-18l-34 1l7 -53h5l48 -47q8 1 14 1.5t10 0.5h13q66 0 106 -25q28 -40 28 -103q0 -76 -51 -121q-50 -45 -127 -45zM253 14q81 0 134 48q54 48 54 128q0 88 -53 136.5 t-141 48.5h-16q-10 0 -15 -1l-5 32l23 -1q186 -8 186 136q0 126 -159 126q-123 0 -155 -107l-29 14q39 123 191 123q81 0 131 -36q56 -41 56 -119q0 -142 -116 -153q62 -14 101 -73q36 -56 36 -122q0 -50 -16 -89t-45.5 -66t-70.5 -41t-90 -14q-173 0 -203 162l30 14 q23 -146 172 -146z" />
<glyph unicode="4" d="M356 -9h6l47 -47h46v180h77v44l-47 47v6h-30v415l-47 47v6l-50 -1l-332 -484l15 -33h5l47 -47h263v-133zM366 181h-319l-10 22l326 475l35 1v-468h77v-30h-77v-181h-32v181zM367 623l-286 -413h286v413zM181 220l176 253v-253h-176z" />
<glyph unicode="5" d="M37 185q10 -121 87 -178l30 -28q56 -55 149 -55q52 0 94.5 16t71.5 46t45 72.5t16 95.5q0 109 -58 164l-31 30q-59 87 -179 87q-53 0 -101 -20v177h341v44l-47 47v6h-394l1 -375h6l47 -47h38q55 72 153 72q53 0 93 -22q30 -47 30 -109q0 -85 -46.5 -136.5t-131.5 -51.5 q-57 0 -93 24q-19 36 -22 88l-46 46q-1 1 -1 7h-52zM80 175q16 -165 171 -165q90 0 139 54t49 144q0 87 -48 137.5t-135 50.5q-102 0 -157 -72h-27l-1 355h374v-30h-341v-281q58 57 158 57q99 0 154 -61q57 -62 57 -160q0 -102 -60 -163q-59 -60 -160 -60q-91 0 -143.5 51.5 t-61.5 142.5h32z" />
<glyph unicode="6" d="M173 -19q56 -56 150 -56q99 0 156 71q53 65 53 165q0 119 -66 182l-26 25l-4 6q-51 77 -164 77q-76 0 -125 -39q35 197 182 197q38 0 71 -14q8 -15 14.5 -34t10.5 -42h6l47 -47h46q-9 93 -52 130l-7 6v0q1 0 1 -1l-23 24q-9 15 -24 28q-53 48 -134 48q-248 0 -248 -384 q0 -243 110 -317zM434 529q-20 137 -155 137q-198 0 -198 -335v-30v-11t1 -9q39 160 190 160q99 0 153 -67q50 -62 50 -163q0 -99 -51 -162q-54 -67 -151 -67q-226 0 -226 341q0 374 238 374q81 0 127 -43.5t54 -124.5h-32zM440 211q0 88 -40 140q-45 60 -129 60 q-82 0 -129 -59q-42 -54 -42 -140q0 -84 40 -139q43 -61 126 -61q84 0 131 59q43 53 43 140zM430 211q0 -85 -40 -134q-45 -55 -124 -55q-47 0 -81 21q-28 49 -28 119q0 80 41 136h-1q45 56 124 56q42 0 77 -19q32 -50 32 -124z" />
<glyph unicode="7" d="M430 690v-1h-382v-52h6l47 -47l296 -1l-209 -598h7l47 -47h49l244 693l-48 48l2 5h-59zM475 680l-239 -680h-34l227 646l-371 1v32h382v1h35z" />
<glyph unicode="8" d="M34 189q0 -114 85 -178l30 -28q58 -57 158 -57q51 0 93 14.5t72 42.5t46 68.5t16 91.5q0 88 -50 136l-32 31q-9 13 -21 24q74 50 74 140q0 80 -48 127l-28 27q-8 16 -27 32q-53 48 -142 48q-87 0 -141 -48q-57 -50 -57 -136q0 -95 72 -141l11 -11q-111 -56 -111 -183z M176 373q-104 44 -104 151q0 82 54 129q51 45 134 45t135 -44q53 -47 53 -130q0 -105 -103 -151q132 -44 132 -180q0 -50 -15.5 -89t-44.5 -66t-69.5 -41t-90.5 -14q-97 0 -155 55t-58 151q0 137 132 184zM79 194q0 -82 49.5 -130.5t131.5 -48.5q41 0 74.5 13t57.5 36t37 56 t13 72q0 81 -50.5 122.5t-131.5 41.5q-82 0 -129 -40q-52 -43 -52 -122zM108 527q0 -67 41.5 -104t110.5 -37q67 0 110 37.5t43 103.5q0 33 -11.5 59.5t-31.5 44.5t-48.5 28t-61.5 10q-69 0 -110.5 -37.5t-41.5 -104.5zM136 144q0 77 50 118q44 37 124 37q58 0 101 -22 q21 -36 21 -85q0 -78 -47 -122.5t-125 -44.5q-60 0 -104 29q-20 38 -20 90zM165 477q0 64 39.5 99.5t105.5 35.5q45 0 76 -17q17 -29 17 -68q0 -63 -40 -97t-103 -34q-50 0 -84 20q-11 24 -11 61z" />
<glyph unicode="9" d="M44 158q8 -94 58 -140q14 -12 20 -16l28 -27l4 -4q50 -46 132 -46q246 0 246 379q0 210 -84 294l-25 25q-60 84 -175 84q-102 0 -159 -73q-52 -67 -52 -168q0 -100 49 -164h-1q21 -27 41 -41l31 -30q53 -52 142 -52q69 0 122 39q-33 -197 -179 -197q-49 0 -80 19 q-14 24 -19 65l-46 46q-1 1 -1 7h-52zM87 148q20 -137 155 -137q198 0 198 335v28v12t-1 10q-39 -160 -190 -160q-99 0 -153 67q-49 61 -49 163q0 98 50 162q54 69 151 69q227 0 227 -343q0 -372 -239 -372q-81 0 -127.5 43.5t-53.5 122.5h32zM81 466q0 -85 41 -140 q45 -60 128 -60q81 0 129 60q43 53 43 139t-40 139q-45 61 -127 61q-84 0 -131 -59q-43 -53 -43 -140zM138 416q0 86 41 136q47 56 126 56q41 0 73 -17q34 -50 34 -126q0 -80 -40 -132q-44 -57 -122 -57q-47 0 -85 23q-27 46 -27 117z" />
<glyph unicode=":" horiz-adv-x="284" d="M103 436q0 -48 23 -56l42 -42q6 -6 17 -6q29 0 29 54q0 36 -12 48l-1 1v-1l-1 1h1l-40 40q-8 18 -26 18q-32 0 -32 -57zM103 41q0 -47 23 -55l42 -42q6 -6 17 -6q29 0 29 54q0 34 -12 46l-40 40q-7 19 -27 19q-32 0 -32 -56zM113 436q0 47 22 47t22 -47t-22 -47t-22 47z M113 41q0 46 22 46t22 -46t-22 -46t-22 46z" />
<glyph unicode=";" horiz-adv-x="284" d="M75 51q0 -32 28 -48l16 -15v-116h6l47 -47h49v234l-47 47v6h-55v-6q-44 -12 -44 -55zM103 436q0 -48 23 -56l42 -42q6 -6 17 -6q29 0 29 54q0 36 -12 48l-1 1v-1l-1 1h1l-40 40q-8 18 -26 18q-32 0 -32 -57zM85 51q0 19 13 33.5t31 14.5v3h35v-220h-35v121q-18 0 -31 15 t-13 33zM113 436q0 47 22 47t22 -47t-22 -47t-22 47z" />
<glyph unicode="&#x3c;" horiz-adv-x="532" d="M472 508l-413 -194v-32l9 -5l44 -43l407 -195v49l-47 47v5l-252 122l299 142v49l-47 47v8zM462 458l-339 -160l339 -164v-34l-393 188v20l393 184v-34z" />
<glyph unicode="=" horiz-adv-x="833" d="M114 247v-51h6l47 -47h599v45l-47 47v6h-605zM114 405v-51h6l47 -47h599v45l-47 47v6h-605zM709 395v-31h-585v31h585zM709 237v-31h-585v31h585z" />
<glyph unicode="&#x3e;" horiz-adv-x="532" d="M59 508v-56l9 -5l44 -43l249 -118l-302 -146v-56l5 2l48 -47l407 195v28l-47 47v5zM69 458v34l393 -184v-20l-393 -188v34l340 164z" />
<glyph unicode="?" horiz-adv-x="463" d="M31 567l7 -3l46 -45l40 -12q24 138 158 138q52 0 91 -17q16 -28 16 -71q0 -51 -47 -86q-23 -17 -47 -35t-50 -38q-54 -60 -54 -166q0 -13 1 -29t3 -36h6l47 -47h46q-6 37 -6 66q0 83 50 133l97 74q55 39 55 118q0 74 -47 121l-25 25q-59 87 -180 87q-85 0 -140.5 -43 t-71.5 -125zM36 576q12 58 47 98q54 60 155 60q84 0 137 -44q58 -46 58 -129q0 -72 -52 -112l-97 -74q-53 -51 -53 -139q0 -10 1.5 -24.5t3.5 -34.5h-32q-3 30 -3 55q0 100 51 159q4 4 96 72q51 37 51 94q0 145 -167 145q-140 0 -164 -136zM186 47q0 -47 23 -55l42 -42 q6 -6 16 -6q29 0 29 54q0 35 -12 47l-1 1v-1l-1 1h1l-40 40q-8 18 -26 18q-31 0 -31 -57zM196 47q0 47 21 47q22 0 22 -47t-22 -47q-21 0 -21 47z" />
<glyph unicode="@" horiz-adv-x="1000" d="M212 -62q126 -126 347 -126q175 0 324 110l-19 29l-39 39l-10 14q-145 -97 -311 -97q-173 0 -276 85q-2 2 -3.5 3t-2.5 2q-59 77 -59 201q0 207 154 331q112 90 273 90q141 0 240 -69q58 -70 58 -170q0 -149 -71 -223q-16 -17 -24.5 -25.5l-9.5 -9.5q-20 -19 -39 -28 t-46 -15l64 401l-48 48l1 5l-52 -1l-10 -61l-6 7q-42 59 -128 59h-7q-99 0 -166 -75q-57 -63 -74 -171q-2 -17 -3.5 -30t-1.5 -24q0 -53 27 -99q21 -39 55 -61l28 -27q47 -44 110 -44h3q63 0 113 31q5 -6 14 -9l40 -39q12 -12 40 -12q5 0 11 0.5t13 1.5h3q60 7 97 29l24 18 q7 5 17 13t23 18q110 87 110 272q0 127 -89 216l-16 16q-26 37 -72 71q-110 83 -274 83q-248 0 -393 -177q-99 -122 -99 -282q0 -191 145 -303zM440 63q-87 -2 -137 81q-26 44 -26 93q0 11 1.5 24t3.5 29q17 105 71 165q61 70 159 72q116 3 146 -93l14 88l32 1l-67 -428 q1 -5 1.5 -10.5t2.5 -12.5q4 -9 21 -9q5 0 10.5 0.5t10.5 1.5q54 10 87 33q8 5 21 18.5t33 33.5q74 80 74 230q0 141 -111 224q-98 72 -247 72q-161 0 -277 -92q-157 -126 -157 -336q0 -169 116 -264q108 -87 282 -87q169 0 308 94l11 -17q-141 -105 -314 -105 q-186 0 -301 88q-146 110 -146 299q0 160 96 276q143 173 386 173q161 0 268 -81q126 -96 126 -245q0 -180 -107 -266q-22 -19 -64 -49q-55 -31 -120 -31q-44 0 -44 35q0 8 1 10h-1l13 85q-58 -97 -176 -100zM330 151q31 -60 115 -58q94 1 150 86q47 74 47 172q0 68 -32 106 q-35 42 -102 41q-88 -1 -143 -76q-46 -64 -54 -158q-1 -7 -1 -14v-11q0 -50 20 -88zM367 189q0 28 4 51q13 84 57 138q51 63 130 63h4q29 0 53 -10q17 -36 17 -80q0 -28 -4 -51q-14 -86 -56 -136q-51 -61 -127 -61h-8q-33 0 -57 11q-13 29 -13 75z" />
<glyph unicode="A" horiz-adv-x="574" d="M-20 -9h8l46 -47h49l94 244h291l75 -197h5l47 -47h48l-278 732l-45 45l-3 8h-52zM272 719h38l273 -719h-33l-93 245h-335l-94 -245h-32zM445 275l-154 405l-157 -405h311zM430 285h-215l108 278z" />
<glyph unicode="B" horiz-adv-x="618" d="M72 -9h6l47 -47h226q141 0 200 36q85 51 85 162q0 87 -49 136l-30 30q-19 25 -35 36q77 50 77 147q0 83 -47 128l-27 26q-33 53 -110 73q-49 11 -136 11h-207v-738zM82 719h197q134 0 186 -31q77 -45 77 -147q0 -121 -123 -164q160 -31 160 -185q0 -108 -82 -157 q-58 -35 -196 -35h-219v719zM294 30q118 0 162 18q88 36 88 150q0 99 -82 136q-57 27 -167 27h-179v-331h178zM283 387q225 0 225 156q0 91 -73 124q-47 22 -154 22h-165v-302h167zM173 304h172q107 0 165 -26q3 -3 6 -4q18 -32 18 -76q0 -107 -82 -141q-42 -17 -158 -17 h-121v264zM173 632h158q103 0 151 -21q0 -1 1 0v-1q15 -27 15 -67q0 -146 -215 -146h-110v235z" />
<glyph unicode="C" horiz-adv-x="681" d="M623 181l-41 22q-41 -179 -237 -179q-86 0 -143 48l-3 6q-56 92 -56 230q0 141 58 232q67 108 199 108q83 0 139 -34q22 -30 36 -71l4 2l48 -48l44 23q-19 53 -58 92l-5 5l-21 20q-23 29 -44 46q-77 62 -187 62q-162 0 -244 -117q-71 -103 -71 -270q0 -163 69 -265 q29 -43 64 -66l21 -21q76 -76 205 -76q100 0 173 47q78 49 102 144l-4 8l-44 44zM618 173q-24 -92 -99 -141q-71 -45 -169 -45q-156 0 -232 112q-67 97 -67 259q0 163 68 263q79 114 237 114q107 0 181 -59q53 -42 75 -103l-31 -16q-49 148 -231 148q-135 0 -205 -111 q-59 -94 -59 -236q0 -143 57 -234q68 -110 202 -110q93 0 155 43q70 47 89 131z" />
<glyph unicode="D" horiz-adv-x="689" d="M72 -9h6l47 -47h172q157 0 234 36q163 75 163 329q0 192 -93 281l-23 22q-39 52 -96 81q-71 36 -235 36h-175v-738zM82 719h165q159 0 231 -35q159 -80 159 -325q0 -251 -159 -324q-76 -35 -231 -35h-165v719zM255 30q145 0 214 36q133 70 133 293q0 181 -95 267 q-45 40 -119 54q-22 4 -55 6t-78 2h-139v-658h139zM173 631h132q45 0 78 -2t54 -6q54 -11 91 -34q64 -83 64 -230q0 -218 -127 -284q-68 -35 -210 -35h-82v591z" />
<glyph unicode="E" horiz-adv-x="567" d="M72 -9h6l47 -47h463v46l-47 46v6h-368v260h321v45l-47 47v6h-274v230h405v46l-47 47v6h-459v-738zM82 719h439v-32h-405v-297h321v-31h-321v-327h415v-32h-449v719z" />
<glyph unicode="F" horiz-adv-x="523" d="M72 -9h6l47 -47h48v358h307v45l-47 47v6h-260v230h386v46l-47 47v6h-440v-738zM82 719h420v-32h-386v-297h307v-31h-307v-359h-34v719z" />
<glyph unicode="G" horiz-adv-x="709" d="M200 8q79 -79 214 -79q74 0 137 27q161 68 161 301v21v12q0 6 -1 11l-47 46v7h-289v-50h6l47 -47h183q-6 -109 -71 -171t-176 -62q-94 0 -157 51q-63 90 -63 234q0 142 62 234q70 105 208 105q88 0 143 -34q22 -30 36 -72l8 -3l45 -45l10 -4l37 18q-22 70 -61 106l-24 23 q-77 108 -244 108q-162 0 -247 -118q-75 -104 -75 -268t76 -268q30 -41 61 -62zM603 546q-48 159 -239 159q-139 0 -213 -107q-64 -92 -64 -239t64 -238q74 -107 213 -107q123 0 190 73q68 74 68 196v31h-237v30h269q1 -5 1 -10v-9v-18q0 -230 -157 -296q-60 -25 -134 -25 q-157 0 -239 112q-73 98 -73 261q0 162 73 262q82 114 239 114q98 0 166 -41q77 -45 104 -133z" />
<glyph unicode="H" horiz-adv-x="686" d="M72 -9h6l47 -47h48v368h388v-321h6l47 -47h47v732l-47 47v6h-53v-320h-388v267l-47 47v6h-54v-738zM82 719h34v-320h455v320h33v-719h-33v369h-455v-369h-34v719z" />
<glyph unicode="I" horiz-adv-x="207" d="M77 -9h6l47 -47h47v732l-47 47v6h-53v-738zM87 719h33v-719h-33v719z" />
<glyph unicode="J" horiz-adv-x="473" d="M217 23q-47 0 -75 19q-1 2 -2 4.5t-2 6.5l-44 44q-3 3 -5 11q-4 -4 -5 -4q-13 -7 -43 -16q19 -54 64 -85l30 -28q50 -47 129 -47q191 0 191 231v517l-47 47v6h-53v-510q0 -97 -24 -140q-32 -56 -114 -56zM217 13q88 0 123 62q25 46 25 144v500h33v-510q0 -224 -184 -224 q-121 0 -160 96q5 1 12.5 4.5t18.5 8.5q33 -81 132 -81z" />
<glyph unicode="K" horiz-adv-x="582" d="M72 -9h6l47 -47h48v273l119 121l264 -347h4l47 -47h58l-332 436l292 296l-48 48l5 5h-71l-338 -344v291l-47 47v6h-54v-738zM82 719h34v-405l399 405h43l-284 -288l327 -431h-40l-309 408l-136 -138v-270h-34v719z" />
<glyph unicode="L" horiz-adv-x="509" d="M73 -9h6l47 -47h429v46l-47 46v6h-334v634l-47 47v6h-54v-738zM83 719h34v-687h381v-32h-415v719z" />
<glyph unicode="M" horiz-adv-x="773" d="M72 -9h6l47 -47h44v604l206 -386h5l47 -47h28l196 380v-504h6l47 -47h44v732l-47 47v6h-63l-237 -476l-217 423l-43 42l-5 11h-64v-738zM82 719h48l262 -506l252 506h47v-719h-30v677l-260 -505h-20l-269 505v-677h-30v719z" />
<glyph unicode="N" horiz-adv-x="682" d="M72 -9h6l47 -47h47v615l390 -568h4l47 -47h44v732l-47 47v6h-53v-622l-387 569l-41 40l-8 13h-49v-738zM82 719h34l451 -662v662h33v-719h-33l-452 661v-661h-33v719z" />
<glyph unicode="O" horiz-adv-x="741" d="M42 359q0 -166 77 -270q13 -17 26 -30t27 -24l25 -25q82 -81 223 -81q163 0 249 111q77 101 77 269q0 169 -76 269q-11 15 -27 31l-21 21q-85 115 -252 115q-165 0 -250 -115q-78 -102 -78 -271zM52 359q0 163 75 264q84 112 243 112q161 0 244 -111q75 -99 75 -265 q0 -167 -75 -264q-82 -109 -244 -109q-160 0 -244 109q-74 100 -74 264zM87 359q0 -149 65 -241q74 -104 218 -104q145 0 219 104q65 92 65 241t-66 241q-75 105 -218 105q-145 0 -218 -105q-65 -92 -65 -241zM144 309q0 146 63 236q72 103 213 103q86 0 151 -42l9 -12 q64 -85 64 -235q0 -148 -63 -235q-72 -100 -211 -100q-100 0 -165 52q-61 91 -61 233z" />
<glyph unicode="P" horiz-adv-x="575" d="M278 729h-206v-738h6l47 -47h48v331h152q78 0 112 7q75 15 116 67t41 130q0 84 -48 132l-28 28q-60 90 -240 90zM278 719q259 0 259 -190q0 -76 -39 -126t-112 -64q-32 -7 -111 -7h-159v-332h-34v719h196zM116 689v-327h137q125 0 167 19q82 36 82 151q0 130 -133 151 q-38 6 -115 6h-138zM173 632h131q79 0 115 -6q37 -6 56 -18q17 -32 17 -76q0 -109 -76 -142q-41 -18 -163 -18h-80v260z" />
<glyph unicode="Q" horiz-adv-x="741" d="M709 -69q-86 7 -125 26q-2 3 -3 9q46 28 78 63q87 102 87 280q0 169 -76 269q-11 15 -27 31l-21 21q-85 115 -252 115q-165 0 -250 -115q-78 -102 -78 -271q0 -166 77 -270q13 -17 26 -30t27 -24l25 -25q82 -81 223 -81q53 0 101 13q6 -6 23 -18l33 -33q44 -45 169 -52 l9 39l-48 48zM690 -104q-123 8 -164 56q-18 21 -29 54q-58 -20 -127 -20q-160 0 -244 109q-74 100 -74 264q0 163 75 264q84 112 243 112q161 0 244 -111q75 -99 75 -265q0 -175 -85 -275q-36 -42 -82 -66q11 -31 26 -47q34 -40 148 -49zM489 37q-6 25 -15 60q-11 31 -27 50 q-36 41 -149 49l2 32q43 -3 91 -17q64 -19 88 -57q14 -22 34 -104q35 20 65 56q76 91 76 253q0 149 -66 241q-75 105 -218 105q-145 0 -218 -105q-65 -92 -65 -241t65 -241q74 -104 218 -104q64 0 119 23zM370 24q-100 0 -165 52q-61 91 -61 233q0 146 63 236 q72 103 213 103q86 0 151 -42l9 -12q64 -85 64 -235q0 -162 -73 -247q-11 -12 -27 -26q-2 4 -4 9t-5 13q-3 5 -6.5 9t-7.5 8l-32 31v2q-1 0 -1 1q-29 42 -94 62q-21 7 -47 11t-57 6l-2 -52h3q1 -1 3 -1l47 -46q76 -6 113 -22q3 -5 9 -23.5t14 -50.5q-51 -19 -107 -19z" />
<glyph unicode="R" horiz-adv-x="622" d="M544 -56h53l-2 237q-6 62 -40 96l-33 33q102 48 102 171q0 93 -48 140l-29 28q-47 80 -226 80h-249v-738h6l47 -47h48v339h210q53 0 94 -12q7 -17 12 -39q1 -8 1.5 -25.5t0.5 -45.5v-170h6zM116 340v-340h-34v719h239q119 0 174 -34q72 -44 72 -154q0 -137 -130 -177 q91 -18 101 -124v-24t1 -69l1 -137h-39v161q0 30 -0.5 48t-1.5 24q-11 67 -57 89q-35 18 -109 18h-217zM338 370q195 0 195 158q0 133 -121 155q-14 2 -36.5 3.5t-54.5 1.5h-205v-318h222zM173 631h198q28 0 50.5 -1.5t39.5 -3.5q8 -2 18.5 -5.5t24.5 -8.5q19 -34 19 -84 q0 -148 -185 -148h-165v251z" />
<glyph unicode="S" horiz-adv-x="573" d="M35 229q7 -148 97 -207l27 -26l1 -1q31 0 90 -33q58 -33 90 -33q108 0 173 52q73 55 73 160q0 72 -47 119l-24 24q-20 33 -57 55q-38 25 -160 59h-3q4 -3 2 -3q-1 0 -9 2l1 3q-4 1 -4 3h-3q-81 21 -119 42q-11 22 -11 52q0 75 51 116q46 37 124 37q63 0 110 -26 q29 -44 30 -110h6l47 -47h46q-5 103 -59 158l-30 30q-65 90 -198 90q-92 0 -153 -46v1q-73 -55 -73 -153q0 -87 68 -138l30 -29q1 -2 8 -7q36 -33 160 -67q2 0 3 -1h1q18 -5 36 -11t37 -11q48 -16 69 -28q20 -32 20 -73q0 -76 -61 -119q-56 -39 -133 -39q-74 0 -124 37 q-27 46 -32 115l-47 46v7h-53zM78 219q6 -96 61.5 -150.5t151.5 -54.5q83 0 140 42q64 46 64 126q0 82 -67 125q-17 11 -53 24.5t-91 27.5q-1 1 -13 4q-124 35 -157 65q-51 46 -51 119q0 92 64 141q59 47 152 47q51 0 92 -14.5t71 -41.5t47 -66t20 -89h-32q-2 86 -58 136 q-55 47 -142 47q-80 0 -129 -39q-53 -44 -53 -121q0 -56 44 -97q29 -26 142 -58q2 -1 5.5 -1.5t8.5 -2.5q127 -38 158 -58q76 -49 76 -139q0 -100 -71 -156q-64 -49 -168 -49q-54 0 -97.5 16t-75 46.5t-50.5 73.5t-22 97h33zM294 398h-1h1z" />
<glyph unicode="T" horiz-adv-x="509" d="M230 -9h6l47 -47h48v687h224v45l-47 47v6h-502v-51h6l47 -47h171v-640zM240 688h-224v31h482v-31h-224v-688h-34v688z" />
<glyph unicode="U" horiz-adv-x="671" d="M67 729v-478q0 -129 70 -202q16 -17 30 -27l24 -22q74 -71 195 -71q128 0 197 71.5t69 200.5v475l-47 47v6h-53v-462q0 -116 -50 -177q-56 -66 -166 -66q-84 0 -135 36q-34 58 -34 157v459l-47 47v6h-53zM110 719v-452q0 -253 226 -253t226 253v452h33v-468 q0 -126 -67 -195.5t-192 -69.5t-192 69.5t-67 195.5v468h33z" />
<glyph unicode="V" horiz-adv-x="525" d="M239 -9h5l47 -47h42l255 732l-48 48l2 5h-56l-209 -606l-190 553l-46 45l-2 8h-54zM-1 719h33l231 -670l230 670h35l-250 -719h-32z" />
<glyph unicode="W" horiz-adv-x="824" d="M192 -9h5l47 -47h45l155 435l139 -388h5l47 -47h45l195 732l-48 47l2 6h-55l-157 -590l-134 366l-45 45l-3 8h-46l-151 -411l-140 529l-46 46l-2 7h-54zM8 719h34l176 -659l178 488h32l179 -488l175 659h34l-192 -719h-34l-178 501l-178 -501h-34z" />
<glyph unicode="X" horiz-adv-x="530" d="M-17 -9h9l46 -47h54l211 317l183 -270h4l47 -47h55l-249 375l235 357l-48 47l4 6h-62l-201 -305l-166 252l-38 38l-10 15h-63l238 -361zM245 368l-233 351h39l214 -323l213 323h37l-230 -350l244 -369h-38l-228 339l-225 -339h-37z" />
<glyph unicode="Y" horiz-adv-x="530" d="M238 -9h6l47 -47h47v319l253 413l-48 47l4 6h-63l-211 -345l-180 292l-40 40l-8 13h-62l255 -417v-321zM248 318l-247 401h38l227 -367l224 367h38l-247 -403v-316h-33v318z" />
<glyph unicode="Z" horiz-adv-x="529" d="M0 -9h5l47 -47h524v44l-47 46v6h-383l418 592v44l-47 47v6h-479v-51h6l47 -47h328l-419 -594v-46zM9 33l462 655h-423v31h459v-34l-462 -655h474v-30h-510v33z" />
<glyph unicode="[" horiz-adv-x="302" d="M207 630h134v45l-47 47v6h-189v-942h6l47 -47h183v44l-47 47v6h-87v794zM115 -204v922h169v-31h-134v-861h134v-30h-169z" />
<glyph unicode="\" horiz-adv-x="292" d="M-49 748l314 -840h5l47 -47h50l-313 834l-45 45l-3 8h-55zM0 738l307 -820h-35l-307 820h35z" />
<glyph unicode="]" horiz-adv-x="302" d="M12 -214h6l47 -47h183v936l-47 47v6h-189v-51h6l47 -47h81v-794h-134v-50zM22 -174h134v861h-134v31h169v-922h-169v30z" />
<glyph unicode="^" horiz-adv-x="542" d="M242 721l-158 -265h9l47 -47h70l99 168l72 -121h5l47 -47h70l-154 259l-41 40l-7 13h-59zM295 711l145 -245h-53l-116 196l-115 -196h-53l145 245h47z" />
<glyph unicode="_" horiz-adv-x="500" d="M-9 -194v-50h6l46 -47h514v44l-47 47v6h-519zM500 -204v-30h-500v30h500z" />
<glyph unicode="`" horiz-adv-x="500" d="M299 527h70l-111 174l-39 39l-9 14h-78l115 -180h5zM253 584l-102 160h53l102 -160h-53z" />
<glyph unicode="a" horiz-adv-x="572" d="M163 -8q61 -61 162 -61q95 0 151 51l38 -38h45v532l-47 47v6h-51v-80l-9 9q-60 82 -177 82q-120 0 -183 -85q-56 -77 -56 -197t56 -197q20 -27 45 -44zM471 112q-49 -124 -196 -124q-114 0 -175 79q-54 70 -54 191q0 119 54 191q60 81 175 81q145 0 196 -130v119h31v-519 h-31v112zM78 258q0 -105 45 -169q52 -75 152 -75t151 75q45 64 45 169q0 104 -45 169q-51 75 -151 75q-99 0 -151 -75q-46 -65 -46 -169zM135 208q0 99 44 164q49 73 146 73q54 0 91 -22l2 -2q43 -62 43 -163t-42 -162q-50 -72 -144 -72q-63 0 -104 29q-36 60 -36 155z" />
<glyph unicode="b" horiz-adv-x="572" d="M59 -9h6l47 -47h46v77q3 -3 6 -5l28 -26q62 -59 155 -59q119 0 181 81q55 73 55 196q0 142 -77 219l-23 23q-1 1 -1.5 2t-1.5 2q-62 86 -183 86q-83 0 -139 -44v179l-47 47v6h-52v-737zM69 718h32v-317q54 129 196 129q113 0 175 -81q54 -74 54 -191q0 -119 -54 -191 q-60 -79 -175 -79q-136 0 -196 122v-110h-32v718zM101 258q0 -105 45 -169q51 -75 151 -75q99 0 152 75q45 64 45 169q0 104 -45 169q-53 75 -152 75q-100 0 -151 -75q-45 -65 -45 -169zM158 208q0 102 43 164q49 73 146 73q52 0 93 -23v-1h1q43 -62 43 -163t-42 -162 q-50 -72 -145 -72q-61 0 -103 30q-36 61 -36 154z" />
<glyph unicode="c" horiz-adv-x="519" d="M472 134l-40 23q-15 -59 -56 -96q-43 -37 -104 -37t-103 30q-36 61 -36 154q0 102 43 164q49 73 146 73q48 0 82 -19q3 -5 8 -15.5t12 -27.5l4 2l48 -47l40 26q-16 43 -44 69l-29 28q-55 79 -171 79q-119 0 -182 -86q-56 -77 -56 -196t55 -195q20 -29 48 -49l26 -24 q62 -59 156 -59q90 0 145 49q41 35 59 93l-3 8l-45 45zM466 125q-42 -137 -197 -137q-114 0 -172 81q-53 73 -53 189t54 190q60 82 174 82q141 0 185 -113l-27 -18q-17 49 -60.5 76t-97.5 27q-100 0 -151 -75q-45 -65 -45 -169q0 -105 45 -169q51 -75 151 -75 q63 0 107.5 33.5t59.5 93.5z" />
<glyph unicode="d" horiz-adv-x="572" d="M512 728h-51v-276l-9 9q-61 79 -177 79q-120 0 -183 -86q-56 -77 -56 -196q0 -121 56 -197q20 -27 45 -44l26 -25q61 -61 162 -61q93 0 149 52l40 -39h45v731l-47 47v6zM502 0h-31v115q-51 -127 -196 -127q-115 0 -175 79q-54 72 -54 191q0 117 54 191q61 81 175 81 q148 0 196 -125v313h31v-718zM471 258q0 104 -45 169q-51 75 -151 75q-99 0 -151 -75q-46 -65 -46 -169q0 -105 45 -169q52 -75 152 -75t151 75q45 64 45 169zM461 258q0 -101 -42 -162q-50 -72 -144 -72q-63 0 -104 29q-36 60 -36 155q0 99 44 164q49 73 146 73 q54 0 91 -22l2 -2q43 -62 43 -163z" />
<glyph unicode="e" horiz-adv-x="523" d="M473 122l-45 24q-47 -122 -165 -122q-53 0 -92 27q-38 62 -38 147v1h405v26q0 116 -53 184q-11 13 -18 21l-27 26q-1 2 -1.5 2.5t-1.5 2.5q-58 79 -174 79q-115 0 -176 -87q-54 -75 -54 -195q0 -116 53 -195q11 -16 24 -29t28 -23l24 -23q57 -57 151 -57q81 0 138 45v1 q45 35 68 94l-48 47q1 1 1 2t1 2zM263 -12q-112 0 -170 82q-50 71 -50 188q0 114 51 188q58 84 169 84q109 0 166 -75q52 -67 52 -180v-19h-405v-8q0 -96 45 -160q51 -74 142 -74q126 0 171 118l26 -14q-24 -63 -76 -96.5t-121 -33.5zM447 285q0 91 -43 150q-48 67 -135 67 q-91 0 -141 -65q-45 -57 -51 -152h370zM184 383h-1q50 62 136 62q44 0 79 -20q35 -51 39 -130h-295q15 53 42 88z" />
<glyph unicode="f" horiz-adv-x="211" d="M38 592v-601h6l47 -47h45v489h102v43l-47 47v6h-55v14q0 53 8 71q14 26 56 26h94v41l-47 47v6l-102 -1q-67 -1 -91 -42v1q-16 -28 -16 -100zM48 592q0 68 15 94q19 35 82 37l92 1v-27h-87q-49 0 -62 -30q-9 -20 -9 -74v-74h102v-29h-102v-490h-31v592z" />
<glyph unicode="g" horiz-adv-x="572" d="M439 -87q-45 -82 -170 -82q-63 0 -105 24q-4 8 -6.5 20t-3.5 28l-47 47v6h-50q1 -94 65 -136q1 0 3 -2l28 -28q54 -54 158 -54q149 0 214 93q34 49 34 150v497l-47 47v6h-51v-80l-6 6q-61 85 -180 85q-120 0 -183 -85q-56 -77 -56 -197q0 -166 101 -244l27 -25 q62 -59 159 -59q79 0 132 38q-5 -34 -16 -55zM471 111q-54 -124 -198 -124q-115 0 -174 80q-53 73 -53 191q0 119 54 191q60 81 175 81q69 0 121 -32t75 -95v116h31v-491q0 -97 -33 -145q-62 -90 -208 -90q-81 0 -133 35q-60 41 -61 118h30q9 -125 172 -125q130 0 179 88 q23 41 23 149v53zM471 258q0 104 -45 169q-51 75 -151 75q-99 0 -151 -75q-46 -65 -46 -169q0 -105 45 -169q52 -75 152 -75t151 75q45 64 45 169zM461 258q0 -101 -42 -162q-50 -72 -144 -72q-63 0 -104 29q-36 60 -36 155q0 99 44 164q49 73 146 73q54 0 91 -22l2 -2 q43 -62 43 -163z" />
<glyph unicode="h" d="M59 -9h6l47 -47h46v284q0 29 1.5 51.5t3.5 37.5q21 127 164 127q32 0 67 -12q18 -36 18 -98v-343h6l47 -47h46v350q0 99 -48 147l-2 1l1 -1l-29 29q-45 70 -157 70q-70 0 -118 -30v165l-47 47v6h-52v-737zM69 718h32v-284q49 96 175 96q178 0 178 -186v-344h-32v334 q0 83 -30 122q-35 45 -115 45q-149 0 -171 -133q-2 -14 -3.5 -36.5t-1.5 -53.5v-278h-32v718z" />
<glyph unicode="i" horiz-adv-x="175" d="M62 -9h6l47 -47h45v532l-47 47v6h-51v-538zM72 519h31v-519h-31v519zM56 680q0 -50 22 -57l43 -42q6 -6 16 -6q29 0 29 55q0 36 -12 48l-41 41q-8 18 -26 18q-31 0 -31 -57zM66 680q0 47 21 47q22 0 22 -47q0 -48 -22 -48q-21 0 -21 48z" />
<glyph unicode="j" horiz-adv-x="175" d="M63 529v-597q0 -60 -6 -73q-11 -24 -53 -24h-63v-50h6l47 -47h67q65 0 86 38q14 26 14 95v605l-47 47v6h-51zM104 519v-598q0 -70 -13 -92q-19 -34 -80 -34h-60v30h53q48 0 62 30q7 15 7 77v587h31zM54 680q0 -50 22 -57l43 -42q6 -6 16 -6q29 0 29 55q0 36 -12 48 l-41 41q-8 18 -26 18q-31 0 -31 -57zM64 680q0 47 21 47q22 0 22 -47q0 -48 -22 -48q-21 0 -21 48z" />
<glyph unicode="k" horiz-adv-x="458" d="M59 -9h6l47 -47h46v188l106 103l164 -244h4l47 -47h53l-223 335l197 197l-48 48l5 5h-67l-238 -236v382l-47 47v6h-52v-737zM69 718h32v-495l299 296h39l-189 -189l219 -330h-36l-205 308l-127 -123v-185h-32v718z" />
<glyph unicode="l" horiz-adv-x="175" d="M62 -9h6l47 -47h45v731l-47 47v6h-51v-737zM72 718h31v-718h-31v718z" />
<glyph unicode="m" horiz-adv-x="817" d="M59 -9h6l47 -47h46v286q0 29 1.5 50.5t3.5 37.5q21 126 148 126q34 0 57 -10q0 -2 2 -4q14 -34 14 -118v-321h6l47 -47h45v286q0 101 28 150q36 64 125 64q34 0 57 -10q0 -2 2 -4q14 -34 14 -118v-321h6l47 -47h46v350q0 104 -48 151l-31 30q-42 65 -142 65 q-104 0 -162 -84l-23 24q-45 60 -138 60q-77 0 -126 -43l-26 26v6h-52v-538zM69 519h32v-85q51 96 162 96q126 0 154 -106q54 106 169 106q164 0 164 -186v-344h-32v312q0 86 -15 122q-28 67 -118 67q-93 0 -131 -68q-29 -53 -29 -153v-280h-31v312q0 86 -15 122 q-28 67 -118 67q-133 0 -155 -132q-2 -16 -3.5 -38t-1.5 -51v-280h-32v519z" />
<glyph unicode="n" d="M59 -9h6l47 -47h46v284q0 29 1.5 51.5t3.5 37.5q21 127 164 127q32 0 67 -12q18 -36 18 -98v-343h6l47 -47h46v350q0 100 -48 147l-30 29q-45 70 -157 70q-85 0 -138 -44l-27 27v6h-52v-538zM69 519h32v-85q49 96 175 96q178 0 178 -186v-344h-32v334q0 83 -30 122 q-35 45 -115 45q-149 0 -171 -133q-2 -14 -3.5 -36.5t-1.5 -53.5v-278h-32v519z" />
<glyph unicode="o" horiz-adv-x="545" d="M34 258q0 -120 56 -197q20 -27 45 -44l26 -25q61 -61 161 -61q119 0 181 81q55 73 55 196q0 142 -77 219l-23 23q-1 1 -1.5 2t-1.5 2q-62 86 -183 86q-119 0 -182 -86q-56 -77 -56 -196zM44 258q0 116 54 190q60 82 174 82q113 0 175 -81q54 -74 54 -191q0 -121 -54 -191 q-61 -79 -175 -79q-115 0 -175 80q-53 71 -53 190zM76 258q0 -105 45 -169q51 -75 151 -75q99 0 152 75q45 64 45 169q0 104 -45 169q-53 75 -152 75q-100 0 -151 -75q-45 -65 -45 -169zM133 208q0 102 43 164q49 73 146 73q52 0 93 -23v-1h1q43 -62 43 -163t-42 -162 q-50 -72 -145 -72q-61 0 -103 30q-36 61 -36 154z" />
<glyph unicode="p" horiz-adv-x="572" d="M59 -214h6l47 -47h46v278q2 -2 3 -2l29 -28q56 -56 157 -56q119 0 181 81q55 73 55 196q0 144 -76 220l-27 27q-61 85 -183 85q-92 0 -151 -53l-35 36v6h-52v-743zM69 519h32v-119q51 130 196 130q115 0 175 -81q54 -72 54 -191q0 -121 -54 -191q-61 -79 -175 -79 q-147 0 -196 124v-316h-32v723zM101 258q0 -105 45 -169q51 -75 151 -75q99 0 152 75q45 64 45 169q0 104 -45 169q-53 75 -152 75q-100 0 -151 -75q-45 -65 -45 -169zM158 208q0 102 43 164q49 73 146 73q52 0 93 -23v-1h1q43 -62 43 -163t-42 -162q-50 -72 -145 -72 q-61 0 -103 30q-36 61 -36 154z" />
<glyph unicode="q" horiz-adv-x="572" d="M163 -8q61 -61 162 -61q82 0 136 39v-184h6l47 -47h45v737l-47 47v6h-51v-80l-9 9q-60 82 -177 82q-120 0 -183 -85q-56 -77 -56 -197t56 -197q20 -27 45 -44zM471 112q-49 -124 -196 -124q-114 0 -175 79q-54 70 -54 191q0 119 54 191q60 81 175 81q145 0 196 -130v119 h31v-723h-31v316zM78 258q0 -105 45 -169q52 -75 152 -75t151 75q45 64 45 169q0 104 -45 169q-51 75 -151 75q-99 0 -151 -75q-46 -65 -46 -169zM135 208q0 99 44 164q49 73 146 73q54 0 91 -22l2 -2q43 -62 43 -163t-42 -162q-50 -72 -144 -72q-63 0 -104 29 q-36 60 -36 155z" />
<glyph unicode="r" horiz-adv-x="263" d="M59 -9h6l47 -47h46v351q0 50 27 82q36 39 67 49q18 6 55 6l30 42l-48 48l4 5h-25q-80 0 -128 -33l-29 29v6h-52v-538zM69 519h32v-86q40 85 172 84l-20 -28q-34 0 -53 -6q-45 -14 -72 -53t-27 -85v-345h-32v519z" />
<glyph unicode="s" horiz-adv-x="481" d="M82 164h-43q7 -97 67 -144q2 -2 4.5 -4t6.5 -5l29 -27q10 -10 12 -11q54 -42 140 -42q79 0 131 37q61 40 61 115q0 56 -33 88l-33 32q-17 25 -38 39v-1q-21 14 -58 27l-30 10l-30 10h-6q-68 16 -105 39q-3 9 -3 20q0 49 45 76q37 22 89 22q43 0 70 -13q13 -23 19 -61h6 l47 -47h45q-8 72 -49 113l-29 29q-6 9 -14 17l-16 16q-53 41 -125 41q-78 0 -128 -34q-60 -41 -60 -113q0 -63 51 -102v1l3 -3l32 -31q10 -10 12 -11v1q38 -31 166 -64l3.5 -0.5t10.5 -2.5l10 -3q1 -1 3 -1l39 -15q6 -14 6 -28q0 -55 -46 -83q-40 -25 -97 -25q-58 0 -92 22 q-7 14 -11 28t-6 29l-46 46q-1 1 -1 5zM81 154q25 -138 166 -138q63 0 104 27q49 31 49 91q0 72 -103 100q-95 26 -100 28q-63 19 -91 41q-42 33 -42 90q0 68 58 105q50 32 120 32q73 0 120 -38.5t55 -110.5h-31q-16 121 -148 121q-55 0 -95 -24q-46 -28 -46 -81 q0 -78 159 -118q1 -1 10 -3q82 -21 114 -43q53 -36 53 -100q0 -70 -59 -111q-52 -34 -126 -34q-86 0 -136 40q-54 43 -62 126h31z" />
<glyph unicode="t" horiz-adv-x="187" d="M37 671v-680h6l47 -47h46v490h104v42l-47 47v6h-57v89l-47 47v6h-52zM79 661v-142h104v-28h-104v-491h-32v661h32z" />
<glyph unicode="u" d="M461 529h-51v-291q0 -26 -1.5 -48.5t-3.5 -41.5v1q-22 -124 -161 -124q-42 0 -75 14q-14 36 -14 93v344l-47 47v6h-51v-357q0 -120 71 -167l30 -28q47 -46 137 -46q86 0 138 43l30 -30h45v532l-47 47v6zM451 0h-31v81q-50 -93 -175 -93q-178 0 -178 184v347h31v-337 q0 -82 31 -122q34 -45 115 -45q148 0 171 132q2 14 3.5 36.5t1.5 54.5v281h31v-519z" />
<glyph unicode="v" horiz-adv-x="444" d="M194 -9h5l47 -47h46l206 532l-47 47l2 6h-56l-164 -425l-137 372l-45 45l-3 8h-53zM8 519h33l178 -482l185 482h33l-200 -519h-36z" />
<glyph unicode="w" horiz-adv-x="669" d="M171 -9h5l47 -47h42l99 288l87 -241h5l47 -47h42l171 532l-48 47l2 6h-53l-130 -404l-85 244l-46 45l-2 8h-43l-101 -293l-109 347l-46 45l-2 8h-53zM13 519h33l148 -470l124 363h29l127 -363l150 470h32l-166 -519h-32l-126 355l-122 -355h-32z" />
<glyph unicode="x" horiz-adv-x="410" d="M57 514l-11 15h-62l188 -261l-195 -277h9l46 -47h54l159 223l128 -176h4l47 -47h55l-197 274l184 258l-48 48l4 5h-62l-150 -212l-115 159zM-3 0l188 268l-182 251h38l164 -225l160 225h37l-179 -251l192 -268h-37l-174 243l-172 -243h-35z" />
<glyph unicode="y" d="M158 146v341l-47 47v6h-52v-354q0 -120 71 -167l30 -29q46 -46 137 -46q65 0 112 27v-7q-4 -24 -15 -47q-42 -81 -151 -81q-49 0 -87 20q-4 10 -6.5 22.5t-3.5 27.5l-47 47v6h-47q1 -50 15 -78q10 -20 50 -59l29 -29q51 -51 140 -51q179 0 215 148q10 39 10 72v525 l-47 47v6h-52v-288q0 -27 -1.5 -49.5t-3.5 -39.5v1q-23 -125 -161 -125q-41 0 -74 14q-14 36 -14 93zM444 -58q-33 -143 -208 -143q-76 0 -122 37q-51 40 -52 113h27q3 -63 49 -94q41 -29 105 -29q70 0 116 34q50 36 60 103q3 19 3 53v80q-50 -96 -175 -96q-178 0 -178 186 v344h32v-334q0 -83 30 -122q34 -45 115 -45q147 0 171 133q2 14 3.5 36.5t1.5 53.5v278h32v-519q0 -28 -10 -69z" />
<glyph unicode="z" horiz-adv-x="437" d="M7 -9h6l47 -47h417v45l-47 46v6h-274l310 390v45l-47 47v6h-392v-51h6l47 -47h237l-310 -392v-48zM17 37l358 451h-338v31h372v-37l-358 -451h369v-31h-403v37z" />
<glyph unicode="{" horiz-adv-x="500" d="M376 731h-26q-149 0 -149 -115q0 -49 24 -130q25 -82 25 -123q0 -77 -98 -77h-13q-5 0 -8 1h-7v-56h6l47 -47l29 1h11q17 0 32 -3q1 -5 1.5 -9t0.5 -8q0 -40 -26 -127t-26 -128q0 -68 50 -97l32 -32q38 -38 127 -38h15v48l-47 47v6h-14q-30 0 -56 8q-1 3 -1 10v10 q0 37 26 123q26 84 26 127t-25 68l-4 3q0 1 -1 1l-16 17q47 23 47 87q0 44 -24 128q-24 85 -24 129q0 76 86 76h10q3 0 7.5 -0.5t9.5 -1.5v49l-47 47v6zM350 721h16v-34q-3 1 -10 1h-10q-93 0 -93 -83q0 -44 24 -129q24 -84 24 -128q0 -77 -71 -89q70 -16 70 -87 q0 -41 -26 -125t-26 -125q0 -89 118 -88v-34q-157 -3 -157 110q0 43 26 127q26 86 26 128q0 81 -105 77l-22 -1v36q126 -8 126 86q0 44 -25 126q-24 81 -24 127q0 105 139 105z" />
<glyph unicode="|" horiz-adv-x="500" d="M222 774v-1018h6l47 -47h50v1012l-47 47v6h-56zM268 764v-998h-36v998h36z" />
<glyph unicode="}" horiz-adv-x="500" d="M79 731v-55h2q1 1 3 1l48 -48q5 1 9.5 1.5t6.5 0.5h11q7 0 30 -3q3 -11 3 -23q0 -44 -24 -129q-24 -84 -24 -128q0 -63 42 -87l4 -4q-46 -25 -46 -85q0 -42 26 -128q27 -84 27 -122q0 -78 -104 -78h-14v-54h6l47 -47h15q155 0 155 117q0 42 -26 128q-25 81 -25 127 q0 70 86 70h11l29 -1v50l-47 47v6h-8q-3 -1 -8 -1h-12q-32 0 -49 7q-1 3 -1 9v11q0 43 24 126q24 84 24 127q0 50 -27 77l-4 3l-31 32q-33 53 -133 53h-26zM105 721q138 0 138 -105q0 -43 -24 -127q-24 -83 -24 -126q0 -94 125 -86v-36l-22 1q-104 5 -104 -77q0 -46 25 -128 q26 -84 26 -127q0 -113 -156 -110v34q118 -1 118 88q0 41 -27 124q-26 84 -26 126q0 71 70 87q-70 12 -70 89q0 44 24 128q24 85 24 129q0 83 -93 83h-10q-7 0 -10 -1v34h16zM269 645h1l-1 1v-1z" />
<glyph unicode="~" horiz-adv-x="602" d="M546 381q-93 -93 -145 -93q-32 0 -96 34q-70 37 -104 37q-68 0 -145 -80v-65l5 5l48 -48q88 91 142 91q26 0 98 -35t102 -35q65 0 142 77v55l-47 47v10zM536 322q-73 -73 -135 -73q-29 0 -101 35t-99 35q-56 0 -135 -81v37q71 74 135 74q30 0 99 -36q72 -35 101 -35 q56 0 135 79v-35z" />
<glyph unicode="&#xa0;" />
<glyph unicode="&#xa1;" horiz-adv-x="307" d="M173 426h-44l-9 -556h6l47 -47h56l-9 550l-47 47v6zM172 -120h-42l9 536h24zM119 553q0 -50 22 -57l43 -42q6 -6 16 -6q29 0 29 55q0 36 -12 48l-1 1v-1l-1 1h1l-40 40q-8 18 -26 18q-31 0 -31 -57zM129 553q0 47 21 47q22 0 22 -47q0 -48 -22 -48q-21 0 -21 48z" />
<glyph unicode="&#xa2;" d="M282 169v-29l-23 23v6h-56v-133l-17 8.5t-18 9.5q-35 59 -35 154q0 110 51 175q5 6 9.5 11t9.5 9v-47h6l47 -47h50v29l29 -29h50v125q2 -1 6.5 -3t9.5 -4q20 -30 27 -70h6l47 -47h46q-10 78 -56 122l-29 28q-5 9 -14 18l-16 16l-27 18v77l-47 47v6h-56v-29l-23 23v6h-56 v-111q-64 -19 -105 -68q-64 -76 -64 -205q0 -128 64 -204q10 -12 19.5 -21t17.5 -15l28 -26q22 -20 40 -31v-62h6l47 -47h50v29l29 -29h50v86q129 34 147 186l-48 47v3q1 1 1 3h-50q-9 -66 -50 -110v49l-47 47v6h-56zM328 159v-137q33 10 60 34q47 41 56 111h30 q-7 -66 -45 -113t-101 -60v-85h-36v80q-3 -1 -11 -1h-32v-79h-36v85q-85 16 -130 99q-39 70 -39 165q0 96 38 166q43 79 131 99v109h36v-103q3 1 11 1h22q7 0 10 -1v103h36v-108q123 -28 141 -157h-32q-16 100 -109 127v-128h-36v135q-3 1 -10 1h-22q-8 0 -11 -1v-135h-36 v128q-71 -21 -107 -93q-30 -60 -30 -143q0 -126 66 -193q31 -31 71 -43v137h36v-144q3 -1 11 -1h22q7 0 10 1v144h36z" />
<glyph unicode="&#xa4;" horiz-adv-x="606" d="M145 606l31 -33q-27 -45 -27 -92t26 -91l-27 -29l40 -42l2 2l48 -48l27 29q40 -28 89 -28q51 0 88 28l25 -24l36 39l-24 24q26 41 26 90q0 52 -28 92l28 28l-48 48l2 2l-41 41l-26 -28q-44 29 -88 29t-87 -30l-32 35zM215 601q41 32 89 32t89 -32l25 27l27 -27l-27 -27 q30 -42 30 -93t-29 -92l24 -22l-26 -29l-24 24q-40 -31 -89 -31t-89 31l-27 -29l-26 28l26 28q-29 44 -29 92q0 51 30 93l-30 32l26 28zM411 497q-4 38 -29.5 65t-62.5 32v-97h92zM289 594q-37 -5 -62.5 -32.5t-29.5 -64.5h92v97zM197 466q5 -37 30 -64t62 -32v96h-92z M319 370q36 5 61.5 32t30.5 64h-92v-96zM255 409h24v-26q-24 6 -24 26zM398 507h-22v28q6 -2 11 -3q4 -5 6.5 -11t4.5 -14z" />
<glyph unicode="&#xa5;" horiz-adv-x="530" d="M52 350v-51h6l47 -47h133v-75h-186v-51h6l47 -47h133v-88h6l47 -47h47v135h185v45l-47 47v6h-138v75h185v45l-47 47v6h-86l201 326l-48 47l4 6h-63l-211 -345l-180 292l-40 40l-8 13h-62l232 -379h-163zM234 340l-233 379h38l227 -367l224 367h38l-233 -379h171v-31h-185 v-142h185v-31h-185v-136h-33v136h-186v31h186v142h-186v31h172z" />
<glyph unicode="&#xa6;" horiz-adv-x="500" d="M222 709v-390h6l47 -47h50v384l-47 47v6h-56zM222 209v-388h6l47 -47h50v382l-47 47v6h-56zM268 699v-370h-36v370h36zM268 199v-368h-36v368h36z" />
<glyph unicode="&#xa7;" horiz-adv-x="500" d="M75 81q-2 -10 -2 -15v-16q0 -83 61 -128l31 -31q44 -44 127 -44q71 0 115 37q50 41 50 108q0 56 -40 96l-25 25q47 8 77 44q32 38 32 82q0 58 -44 100l-26 25q-34 51 -113 88l-77 36q-28 13 -46 24q-5 15 -5 34q0 46 34 76h-1q31 26 82 26q23 0 45 -8q15 -32 15 -80h6 l47 -47h45q0 94 -45 138l-31 30q-39 64 -136 64q-35 0 -64 -10.5t-50.5 -30t-33.5 -47.5t-12 -62q0 -73 58 -113q-104 -29 -104 -128q0 -78 71 -125l23 -23q25 -26 66 -45l131 -64l7 -3.5t5 -3.5q12 -21 12 -45q0 -47 -29 -74v1q-38 -29 -92 -29q-37 0 -61 12q-8 21 -8 53 v20l-47 47v6h-48zM113 71v-13q0 -125 126 -125q58 0 94.5 27.5t36.5 84.5q0 67 -81 108l-131 64q-103 49 -103 137q0 106 123 124q-77 38 -77 117q0 64 44 103q40 37 106 37q155 0 155 -165h-31q0 135 -120 135q-52 0 -87 -29t-35 -80q0 -44 32 -74q19 -19 72 -43l77 -36 q130 -61 130 -154q0 -50 -38 -86q-38 -35 -88 -35h-9q-2 0 -3.5 -0.5t-3.5 0.5q45 -14 71.5 -48t26.5 -79q0 -33 -12 -58.5t-33.5 -43t-50.5 -26.5t-62 -9q-75 0 -115 36q-44 38 -44 110q0 18 1 21h29zM273 193q141 4 141 91q0 83 -105 128l-104 45q-50 -5 -81 -27 q-38 -26 -38 -72q0 -74 80 -113zM170 254q-4 2 -8.5 4.5t-11.5 6.5q-7 17 -7 43q0 41 36 67q32 21 75 25l102 -44q10 -6 33 -18q15 -24 15 -54q0 -60 -82 -76q-11 -2 -22.5 -3t-24.5 -2z" />
<glyph unicode="&#xa8;" horiz-adv-x="500" d="M142 661q0 -50 22 -57l43 -42q6 -6 16 -6q29 0 29 55q0 36 -12 48l-41 41q-8 18 -26 18q-31 0 -31 -57zM296 663q0 -51 23 -57l42 -41q7 -7 17 -7q29 0 29 55q0 35 -12 47l-40 40q-7 19 -27 19q-32 0 -32 -56zM306 663q0 46 22 46t22 -46q0 -48 -22 -48t-22 48zM152 661 q0 47 21 47q22 0 22 -47q0 -48 -22 -48q-21 0 -21 48z" />
<glyph unicode="&#xa9;" horiz-adv-x="833" d="M652 481l-22 22q-5 5 -12 13.5t-17 19.5q-77 74 -185 74q-106 0 -182 -75q-77 -75 -77 -184q0 -106 75 -184q13 -15 27 -24l25 -24q77 -74 182 -74q108 0 182 74q75 73 75 182t-71 180zM666 351q0 -105 -73 -177q-72 -72 -177 -72t-178 71q-71 73 -71 178q0 104 72 176 q73 73 177 73q107 0 178 -71q72 -71 72 -178zM198 351q0 -67 36.5 -121.5t99.5 -80.5q42 -17 82 -17q91 0 155 64t64 155q0 93 -63 155q-62 62 -156 62q-90 0 -154 -64q-64 -63 -64 -153zM359 306q0 61 24 100q28 49 85 49q19 0 36 -6q4 -7 6.5 -13.5t4.5 -12.5l4 2l48 -47 l42 23q-15 39 -36 60l-30 30q-2 3 -3.5 5t-3.5 4q28 -10 47 -22q42 -54 42 -127q0 -59 -31 -109l-30 31q0 4 1 5l-48 25q-19 -91 -101 -91q-25 0 -44 9q-13 32 -13 85zM418 172q-77 0 -115 56q-33 48 -33 128t34 129q39 57 116 57q99 0 130 -88l-29 -16q-24 74 -103 74 q-59 0 -91 -50q-25 -41 -25 -106t24 -105q28 -49 90 -49q88 0 108 86l29 -15q-11 -42 -39 -67q-38 -34 -96 -34zM363 154q1 -1 2 -2.5t3 -3.5q-43 11 -82 40q-31 49 -31 113q0 27 5 49q1 -78 35 -128q15 -24 37 -37z" />
<glyph unicode="&#xaa;" horiz-adv-x="380" d="M130 337q43 -41 110 -41q62 0 99 31l23 -22h40v369l-47 47v6h-46v-45q-42 52 -119 52q-85 0 -127 -59q-38 -53 -38 -136t38 -136q18 -26 36 -36zM190 353q-78 0 -119 56q-36 49 -36 130q0 80 36 130q40 55 119 55q92 0 129 -76v69h26v-355h-26v65q-36 -74 -129 -74z M190 378q67 0 100 49q29 43 29 112q0 68 -29 111q-35 50 -100 50q-64 0 -99 -50q-29 -44 -29 -111q0 -68 29 -111q33 -50 99 -50zM190 388q-31 0 -55 12q-16 35 -16 89q0 66 28 107q32 47 93 47q28 0 47 -10q22 -40 22 -94q0 -67 -27 -106q-32 -45 -92 -45z" />
<glyph unicode="&#xab;" horiz-adv-x="354" d="M339 391l2 3l-43 29l-51 -63l-30 31l2 3l-43 29l-135 -167l135 -167l3 2l48 -48l36 26l-109 137l24 31l120 -148l3 2l48 -48l36 26l-109 137l111 137zM218 256l107 -135l-25 -19l-125 154l125 154l27 -19zM96 256l107 -135l-25 -19l-125 154l125 154l27 -19z" />
<glyph unicode="&#xac;" horiz-adv-x="703" d="M114 427v-51h6l47 -47h410v-84h6l47 -47h43v176l-47 47v6h-512zM616 417v-162h-29v131h-463v31h492z" />
<glyph unicode="&#xad;" horiz-adv-x="603" d="M566 226v44l-47 47v6h-405v-50h6l47 -47h399zM509 283h-385v30h385v-30z" />
<glyph unicode="&#xae;" horiz-adv-x="708" d="M284 119q77 -74 182 -74q108 0 182 74q75 73 75 182t-71 180l-22 22q-5 5 -12 13.5t-17 19.5q-74 74 -185 74q-106 0 -182 -75q-77 -75 -77 -184q0 -106 75 -184q13 -15 27 -24zM666 351q0 -105 -73 -177q-72 -72 -177 -72t-178 71q-71 73 -71 178q0 104 72 176 q73 73 177 73q107 0 178 -71q72 -71 72 -178zM198 351q0 -33 10 -64t28 -57t43 -47t55 -34q42 -17 82 -17q33 0 64 9.5t57.5 27.5t47.5 43t34 55q16 36 16 84q0 93 -63 155q-62 62 -156 62q-92 0 -155 -63q-63 -62 -63 -154zM313 179v355h119q123 0 123 -97q0 -59 -46 -83 q28 -16 33 -58v-117h-34v83q0 56 -23 70q-11 7 -47 7h-93v-160h-32zM523 436q0 55 -50 64q-17 3 -41 3h-87v-134h95q83 0 83 67zM402 282h94q1 -5 1.5 -10t0.5 -10v-93h6l5 -5q-43 -22 -93 -22h-14v140zM255 301q0 81 48 135v-259q-1 0 -15 11q-33 52 -33 113zM513 436 q0 -57 -73 -57h-38v67h80q10 0 17.5 -0.5t13.5 -1.5v-8zM577 299l-5 5q40 25 40 83q0 46 -26 72l-32 31q-1 1 -1.5 2t-1.5 2q19 -7 32 -16q42 -54 42 -127q0 -58 -26 -102q-5 33 -22 50z" />
<glyph unicode="&#xaf;" horiz-adv-x="500" d="M415 604v44l-47 47v6h-265v-50h6l47 -47h259zM358 661h-245v30h245v-30z" />
<glyph unicode="&#xb0;" horiz-adv-x="329" d="M165 717q-32 0 -58 -11t-44.5 -30t-29 -45t-10.5 -56q0 -81 63 -120l29 -29q39 -39 99 -39q30 0 55.5 10.5t44 28.5t29 43.5t10.5 55.5q0 59 -40 99l-29 29q-3 4 -7.5 9.5t-11.5 13.5q-41 41 -100 41zM165 707q55 0 93 -38t38 -94q0 -29 -10 -53t-27.5 -41t-42 -27 t-52.5 -10q-29 0 -53 10t-41.5 27t-27 41t-9.5 53q0 28 10 52.5t27.5 42t41.5 27.5t53 10zM165 682q-48 0 -77.5 -29.5t-29.5 -77.5q0 -46 30.5 -76.5t76.5 -30.5t76 30.5t30 76.5q0 23 -8 42.5t-22.5 34t-34 22.5t-41.5 8zM115 525q0 45 27.5 72.5t72.5 27.5q18 0 36 -7 q10 -19 10 -43q0 -42 -27 -69.5t-69 -27.5q-25 0 -44 10q-6 16 -6 37z" />
<glyph unicode="&#xb1;" horiz-adv-x="614" d="M285 572v-174h-185v-51h6l47 -47h132v-127h6l47 -47h44v174h179v45l-47 47v6h-132v121l-47 47v6h-50zM100 75v-51h6l47 -46h408v44l-47 47v6h-414zM325 562v-174h179v-31h-179v-174h-30v174h-185v31h185v174h30zM504 65v-31h-394v31h394z" />
<glyph unicode="&#xb2;" horiz-adv-x="344" d="M240 523l-233 -256h10l47 -47h285v31l-47 47v6h-114l134 149q28 31 28 82q0 54 -32 86l-32 32q-34 55 -110 55q-63 0 -97.5 -35t-34.5 -98v-15h6l47 -47h35v14q0 95 94 95q15 0 30 -4q6 -17 6 -35q0 -37 -22 -60zM247 516q25 28 25 67q0 45 -25.5 70.5t-70.5 25.5 q-101 0 -101 -102v-7h-21v5q0 57 32.5 90t89.5 33q54 0 85.5 -29.5t31.5 -83.5q0 -48 -26 -77l-192 -214h217v-17h-262zM287 601l-1 1q1 0 1 -1z" />
<glyph unicode="&#xb3;" horiz-adv-x="344" d="M169 288q-35 0 -60 12q-3 8 -4.5 15.5l-2.5 12.5l-47 46v4q-1 2 -1 4l-40 -17q12 -61 56 -91l34 -33q40 -39 116 -39q67 0 114 33q51 37 51 104q0 53 -38 91l-29 28q52 21 52 94q0 43 -25 68l-33 33q-29 54 -132 54q-116 0 -149 -90l10 -5l44 -43l35 -15q23 68 105 68 q18 0 51 -6q1 -5 1.5 -9t0.5 -6q0 -72 -110 -72h-41l8 -41h2q1 1 3 1l48 -48q5 1 9.5 1.5t6.5 0.5h11q39 0 69 -15q9 -18 9 -42q0 -47 -40 -74q-35 -24 -84 -24zM169 278q54 0 92 26q42 30 42 82q0 57 -42 87q-38 27 -96 27h-11q-7 0 -10 -1l-4 20h16q132 0 132 82 q0 78 -113 78q-88 0 -110 -66l-21 9q28 75 136 75q133 0 133 -95q0 -88 -83 -94q21 -4 39 -15t31 -27t20.5 -36t7.5 -41q0 -64 -49 -98q-44 -32 -109 -32q-123 0 -144 100l21 9q16 -90 122 -90z" />
<glyph unicode="&#xb4;" horiz-adv-x="500" d="M175 574h9l47 -47h71l110 174l-48 47l4 6h-78zM296 744h53l-101 -160h-54z" />
<glyph unicode="&#xb6;" horiz-adv-x="500" d="M156 386q17 -17 45 -31q39 -19 103 -26v-459h6l47 -47h44v42l42 -42h43v814h1v42l-47 47v6h-118q-106 0 -173 -36q-89 -47 -89 -141v-3q0 -92 66 -137zM429 694v-814h-29v814h-56v-814h-30v502q-54 2 -94 9t-66 20q-83 40 -84 141q-1 93 86 137q66 33 166 33h108v-28h-1z " />
<glyph unicode="&#xb7;" horiz-adv-x="284" d="M98 372q0 -48 23 -56l42 -42q6 -6 17 -6q29 0 29 54q0 35 -12 47l-40 40q-7 19 -27 19q-32 0 -32 -56zM108 372q0 46 22 46t22 -46q0 -47 -22 -47t-22 47z" />
<glyph unicode="&#xb8;" horiz-adv-x="500" d="M223 -225h6l47 -47h41q106 0 106 90q0 36 -20 56l-36 36q-15 29 -54 38v10l-47 46v6h-45v-101h6l47 -47h54q-1 -40 -59 -40h-46v-47zM233 -188h36q69 0 69 51q0 56 -79 56h-28v81h25v-57h12q98 0 98 -75q0 -83 -99 -83h-34v27z" />
<glyph unicode="&#xb9;" horiz-adv-x="344" d="M75 554l5 4l48 -48l40 35l1 -285h6l47 -47h40v432l-47 47v6h-41l-99 -90v-54zM85 604l94 84h26v-418h-26l-1 388l-93 -82v28z" />
<glyph unicode="&#xba;" horiz-adv-x="409" d="M23 537q0 -87 45 -142q16 -20 35 -33l28 -27q47 -46 123 -46q85 0 133 57h1q45 54 45 141q0 90 -45 141l-11 10q0 -1 2 -1l-28 27q-4 6 -8 11.5t-8 10.5v-2q-50 53 -131 53q-83 0 -131 -53v2q-50 -59 -50 -149zM33 537q0 86 42 136q45 54 129 54t128 -52.5t44 -137.5 q0 -86 -43 -136q-46 -55 -129 -55q-84 0 -129 55q-42 51 -42 136zM57 537q0 -74 35 -120q39 -51 112 -51q71 0 112 51q36 46 36 120q0 75 -36 120q-39 50 -112 50q-72 0 -111 -50q-36 -47 -36 -120zM114 487q0 69 35 116h-1q38 47 106 47q35 0 65 -14q23 -41 23 -99 q0 -70 -33 -113q-38 -48 -105 -48q-42 0 -72 18q-18 34 -18 93z" />
<glyph unicode="&#xbb;" horiz-adv-x="354" d="M42 120l19 -16l35 -34l35 -27l51 63l36 -36l35 -27l132 163l-132 163l-28 28l-21 26l-43 -29l110 -138l-24 -31l-116 144l-28 28l-21 26l-43 -29l110 -138zM284 256l-109 135l27 19l125 -154l-125 -154l-24 19zM162 256l-109 135l27 19l125 -154l-125 -154l-24 19z" />
<glyph unicode="&#xbc;" horiz-adv-x="823" d="M141 -24h9l47 -47h55l474 727l-48 47l4 6h-63zM719 -12h6l47 -47h38v108h59v32l-47 47v6h-12v230l-47 47v6h-40l-257 -297l15 -24h5l47 -47h186v-61zM75 554l5 4l48 -48l40 35l1 -285h6l47 -47h40v432l-47 47v6h-41l-99 -90v-54zM729 106h-242l-8 13l248 288h26v-283h59 v-18h-59v-108h-24v108zM730 374l-217 -251h217v251zM625 699h38l-465 -713h-38zM85 604l94 84h26v-418h-26l-1 388l-93 -82v28zM624 133l96 110v-110h-96z" />
<glyph unicode="&#xbd;" horiz-adv-x="823" d="M141 -24h9l47 -47h55l474 727l-48 47l4 6h-63zM731 246l-232 -255h10l47 -47h284v32l-47 46v6h-113l145 160l-2 1q19 28 19 70q0 53 -32 85l-33 32q-34 55 -110 55q-63 0 -97.5 -34.5t-34.5 -97.5v-16h6l47 -47h35v14q0 95 94 95q14 0 32 -5q5 -18 5 -33q0 -35 -23 -61z M75 554l5 4l48 -48l40 35l1 -285h6l47 -47h40v432l-47 47v6h-41l-99 -90v-54zM625 699h38l-465 -713h-38zM738 239q26 29 26 68q0 45 -26 70t-71 25q-101 0 -101 -102v-7h-21v6q0 57 32.5 89.5t89.5 32.5q54 0 86 -29t32 -83q0 -47 -27 -78h1l-192 -213h216v-18h-261z M85 604l94 84h26v-418h-26l-1 388l-93 -82v28z" />
<glyph unicode="&#xbe;" horiz-adv-x="823" d="M160 293q-32 0 -59 11l-4 14l-3 15l-47 47q-1 1 -1 7l-42 -17q12 -61 56 -91l34 -33q40 -39 116 -39q57 0 95 20l-164 -251h9l47 -47h55l474 727l-48 47l4 6h-63l-245 -376q0 3 1 5v6q0 53 -38 91l-4 3l-25 25q52 21 52 94q0 43 -25 68l-2 1h1l-32 32q-29 54 -132 54 q-115 0 -148 -90l10 -5l44 -43l33 -15q23 68 107 68q14 0 26.5 -1.5t23.5 -3.5q1 -5 1.5 -9t0.5 -7q0 -73 -113 -73h-9l-29 2l8 -42h2q1 1 3 1l48 -48q5 1 9.5 1.5t6.5 0.5h11q39 0 69 -15q9 -18 9 -42q0 -47 -39 -74q-35 -24 -84 -24zM719 -9h6l47 -47h38v109h59v32l-47 47 v6h-12v230l-47 47v6h-40l-257 -297l15 -24h5l47 -47h186v-62zM729 110h-242l-8 13l248 288h26v-283h59v-18h-59v-110h-24v110zM730 377l-217 -250h217v250zM625 699h38l-465 -713h-38zM160 283q53 0 91 27q42 30 42 81q0 57 -42 87q-38 27 -96 27h-11q-7 0 -10 -1l-4 20 l16 -1q132 -8 132 83q0 78 -112 78q-89 0 -111 -66l-20 9q27 75 135 75q133 0 133 -95q0 -88 -82 -94q21 -4 39 -15t30.5 -27t20 -36t7.5 -41q0 -65 -49 -99q-43 -31 -109 -31q-123 0 -144 100l22 9q15 -90 122 -90zM624 137l96 109v-109h-96z" />
<glyph unicode="&#xbf;" horiz-adv-x="463" d="M432 34l-44 14q-24 -137 -157 -137q-63 0 -100 21q-10 24 -10 63q0 51 49 87q92 68 96 73q53 59 53 164q0 12 -1 27.5t-3 34.5l-46 46v4q-1 1 -1 3h-51q2 -17 3.5 -34t1.5 -35q0 -82 -48 -131q-32 -23 -55 -41t-37 -30v1q-62 -47 -62 -124q0 -49 18 -80q5 -10 18.5 -25 t34.5 -36l28 -28q59 -59 157 -59q82 0 137 42t71 121l-5 8l-42 41v1zM427 25q-13 -75 -67.5 -115.5t-133.5 -40.5q-85 0 -138 43q-58 46 -58 128q0 70 53 112q22 17 46 35.5t51 38.5q52 51 52 139q0 14 -1 28.5t-3 30.5h31q3 -29 3 -55q0 -102 -51 -159q-5 -7 -95 -72 q-52 -37 -52 -94q0 -143 167 -143q141 0 165 134zM279 456q6 -6 17 -6q29 0 29 54q0 36 -12 48l-41 41q-8 18 -26 18q-32 0 -32 -57q0 -48 23 -56zM268 554q0 -47 -22 -47t-22 47t22 47t22 -47z" />
<glyph unicode="&#xc0;" horiz-adv-x="574" d="M0 0zM-20 -9h8l46 -47h49l94 244h291l75 -197h5l47 -47h48l-278 732l-45 45l-3 8h-52zM272 719h38l273 -719h-33l-93 245h-335l-94 -245h-32zM445 275l-154 405l-157 -405h311zM430 285h-215l108 278zM347 732h70l-111 174l-39 39l-9 14h-78l115 -180h5zM301 789 l-102 160h53l102 -160h-53z" />
<glyph unicode="&#xc1;" horiz-adv-x="574" d="M0 0zM-20 -9h8l46 -47h49l94 244h291l75 -197h5l47 -47h48l-278 732l-45 45l-3 8h-52zM272 719h38l273 -719h-33l-93 245h-335l-94 -245h-32zM445 275l-154 405l-157 -405h311zM430 285h-215l108 278zM223 779h9l47 -47h71l110 174l-48 47l4 6h-78zM344 949h53l-101 -160 h-54z" />
<glyph unicode="&#xc2;" horiz-adv-x="574" d="M0 0zM-20 -9h8l46 -47h49l94 244h291l75 -197h5l47 -47h48l-278 732l-45 45l-3 8h-52zM272 719h38l273 -719h-33l-93 245h-335l-94 -245h-32zM445 275l-154 405l-157 -405h311zM430 285h-215l108 278zM155 779h9l47 -47h55l70 108l43 -66h4l48 -47l52 6l-107 173l-40 39 l-8 14h-60zM274 949h48l99 -160l-36 -4l-87 136l-86 -132h-38z" />
<glyph unicode="&#xc3;" horiz-adv-x="574" d="M0 0zM-20 -9h8l46 -47h49l94 244h291l75 -197h5l47 -47h48l-278 732l-45 45l-3 8h-52zM272 719h38l273 -719h-33l-93 245h-335l-94 -245h-32zM445 275l-154 405l-157 -405h311zM430 285h-215l108 278zM406 929q-1 -1 -3 -7l-4 -10q-2 -3 -4 -11q-5 -11 -12 -28v1 q-13 -22 -31 -22q-12 0 -47 32q-42 39 -61 39q-40 0 -84 -86l31 -31q0 2 1 3l48 -48q34 63 54 64h1q10 0 38 -28l5 -5q38 -39 64 -37q30 1 48 24l1 1q6 10 15 27q1 2 2.5 4.5t3.5 6.5l2 2q2 4 4.5 8t4.5 8l-26 37l-39 39zM424 886q-7 -12 -14 -25t-15 -27q-16 -21 -43 -22 q-16 0 -60 35q-42 36 -48 35q-26 -2 -56 -59l-16 16q38 74 72 74q14 0 53 -36q40 -35 55 -35q25 0 40 27q4 10 8 19.5t9 18.5z" />
<glyph unicode="&#xc4;" horiz-adv-x="574" d="M0 0zM-20 -9h8l46 -47h49l94 244h291l75 -197h5l47 -47h48l-278 732l-45 45l-3 8h-52zM272 719h38l273 -719h-33l-93 245h-335l-94 -245h-32zM445 275l-154 405l-157 -405h311zM430 285h-215l108 278zM190 866q0 -50 22 -57l43 -42q6 -6 16 -6q29 0 29 55q0 36 -12 48 l-41 41q-8 18 -26 18q-31 0 -31 -57zM344 868q0 -51 23 -57l42 -41q7 -7 17 -7q29 0 29 55q0 35 -12 47l-40 40q-7 19 -27 19q-32 0 -32 -56zM354 868q0 46 22 46t22 -46q0 -48 -22 -48t-22 48zM200 866q0 47 21 47q22 0 22 -47q0 -48 -22 -48q-21 0 -21 48z" />
<glyph unicode="&#xc5;" horiz-adv-x="574" d="M-20 -9h8l46 -47h49l94 244h291l75 -197h5l47 -47h48l-290 743q48 5 76 36.5t28 79.5q0 53 -33 85l-33 32q-33 53 -100 53q-54 0 -87 -33t-33 -87q0 -70 54 -101l32 -32q1 -1 1.5 -2t1.5 -2zM272 719h38l273 -719h-33l-93 245h-335l-94 -245h-32zM445 275l-154 405 l-157 -405h311zM181 853q0 48 31 79t79 31t78.5 -31t30.5 -79t-30.5 -78.5t-78.5 -30.5t-79 30.5t-31 78.5zM430 285h-215l108 278zM209 854q0 -35 23.5 -58t58.5 -23t58 23t23 58t-23 58t-58 23t-58.5 -23t-23.5 -58zM266 804q0 32 21.5 53t53.5 21q4 0 8.5 -0.5t9.5 -1.5 q3 -11 3 -22q0 -31 -20 -51t-51 -20q-16 0 -24 4q-1 3 -1 17z" />
<glyph unicode="&#xc6;" horiz-adv-x="804" d="M525 302h242v44l-47 47v6h-195v233h277v44l-47 47v6h-381l-341 -738h8l47 -47h51l111 240h176v-193h6l47 -47h333v45l-47 46v6h-240v261zM196 241l-111 -241h-36l331 719h365v-30h-277v-300h242v-30h-242v-328h287v-31h-319v241h-240zM436 689h-34l-192 -418h226v418z M294 281l132 285v-285h-132z" />
<glyph unicode="&#xc7;" horiz-adv-x="681" d="M41 0zM623 181l-41 22q-41 -179 -237 -179q-86 0 -143 48l-3 6q-56 92 -56 230q0 141 58 232q67 108 199 108q83 0 139 -34q22 -30 36 -71l4 2l48 -48l44 23q-19 53 -58 92l-5 5l-21 20q-23 29 -44 46q-77 62 -187 62q-162 0 -244 -117q-71 -103 -71 -270q0 -163 69 -265 q29 -43 64 -66l21 -21q76 -76 205 -76q100 0 173 47q78 49 102 144l-4 8l-44 44zM618 173q-24 -92 -99 -141q-71 -45 -169 -45q-156 0 -232 112q-67 97 -67 259q0 163 68 263q79 114 237 114q107 0 181 -59q53 -42 75 -103l-31 -16q-49 148 -231 148q-135 0 -205 -111 q-59 -94 -59 -236q0 -143 57 -234q68 -110 202 -110q93 0 155 43q70 47 89 131zM325 -225h6l47 -47h41q106 0 106 90q0 36 -20 56l-36 36q-15 29 -54 38v10l-47 46v6h-45v-101h6l47 -47h54q-1 -40 -59 -40h-46v-47zM335 -188h36q69 0 69 51q0 56 -79 56h-28v81h25v-57h12 q98 0 98 -75q0 -83 -99 -83h-34v27z" />
<glyph unicode="&#xc8;" horiz-adv-x="567" d="M72 0zM72 -9h6l47 -47h463v46l-47 46v6h-368v260h321v45l-47 47v6h-274v230h405v46l-47 47v6h-459v-738zM82 719h439v-32h-405v-297h321v-31h-321v-327h415v-32h-449v719zM357 732h70l-111 174l-39 39l-9 14h-78l115 -180h5zM311 789l-102 160h53l102 -160h-53z" />
<glyph unicode="&#xc9;" horiz-adv-x="567" d="M72 0zM72 -9h6l47 -47h463v46l-47 46v6h-368v260h321v45l-47 47v6h-274v230h405v46l-47 47v6h-459v-738zM82 719h439v-32h-405v-297h321v-31h-321v-327h415v-32h-449v719zM233 779h9l47 -47h71l110 174l-48 47l4 6h-78zM354 949h53l-101 -160h-54z" />
<glyph unicode="&#xca;" horiz-adv-x="567" d="M72 0zM72 -9h6l47 -47h463v46l-47 46v6h-368v260h321v45l-47 47v6h-274v230h405v46l-47 47v6h-459v-738zM82 719h439v-32h-405v-297h321v-31h-321v-327h415v-32h-449v719zM165 779h9l47 -47h55l70 108l43 -66h4l48 -47l52 6l-107 173l-40 39l-8 14h-60zM284 949h48 l99 -160l-36 -4l-87 136l-86 -132h-38z" />
<glyph unicode="&#xcb;" horiz-adv-x="567" d="M72 0zM72 -9h6l47 -47h463v46l-47 46v6h-368v260h321v45l-47 47v6h-274v230h405v46l-47 47v6h-459v-738zM82 719h439v-32h-405v-297h321v-31h-321v-327h415v-32h-449v719zM200 866q0 -50 22 -57l43 -42q6 -6 16 -6q29 0 29 55q0 36 -12 48l-41 41q-8 18 -26 18 q-31 0 -31 -57zM354 868q0 -51 23 -57l42 -41q7 -7 17 -7q29 0 29 55q0 35 -12 47l-40 40q-7 19 -27 19q-32 0 -32 -56zM364 868q0 46 22 46t22 -46q0 -48 -22 -48t-22 48zM210 866q0 47 21 47q22 0 22 -47q0 -48 -22 -48q-21 0 -21 48z" />
<glyph unicode="&#xcc;" horiz-adv-x="207" d="M0 0zM77 -9h6l47 -47h47v732l-47 47v6h-53v-738zM87 719h33v-719h-33v719zM155 732h70l-111 174l-39 39l-9 14h-78l115 -180h5zM109 789l-102 160h53l102 -160h-53z" />
<glyph unicode="&#xcd;" horiz-adv-x="207" d="M31 0zM77 -9h6l47 -47h47v732l-47 47v6h-53v-738zM87 719h33v-719h-33v719zM31 779h9l47 -47h71l110 174l-48 47l4 6h-78zM152 949h53l-101 -160h-54z" />
<glyph unicode="&#xce;" horiz-adv-x="207" d="M0 0zM77 -9h6l47 -47h47v732l-47 47v6h-53v-738zM87 719h33v-719h-33v719zM-37 779h9l47 -47h55l70 108l43 -66h4l48 -47l52 6l-107 173l-40 39l-8 14h-60zM82 949h48l99 -160l-36 -4l-87 136l-86 -132h-38z" />
<glyph unicode="&#xcf;" horiz-adv-x="207" d="M0 0zM77 -9h6l47 -47h47v732l-47 47v6h-53v-738zM87 719h33v-719h-33v719zM-2 866q0 -50 22 -57l43 -42q6 -6 16 -6q29 0 29 55q0 36 -12 48l-41 41q-8 18 -26 18q-31 0 -31 -57zM152 868q0 -51 23 -57l42 -41q7 -7 17 -7q29 0 29 55q0 35 -12 47l-40 40q-7 19 -27 19 q-32 0 -32 -56zM162 868q0 46 22 46t22 -46q0 -48 -22 -48t-22 48zM8 866q0 47 21 47q22 0 22 -47q0 -48 -22 -48q-21 0 -21 48z" />
<glyph unicode="&#xd0;" horiz-adv-x="689" d="M72 -9h6l47 -47h172q157 0 234 36q163 75 163 329q0 192 -93 281l-23 22q-39 52 -96 81q-71 36 -235 36h-175v-320h-81v-47h6l46 -47h29v-324zM82 372h-82v27h82v320h165q159 0 231 -35q159 -80 159 -325q0 -251 -159 -324q-76 -35 -231 -35h-165v372zM255 30 q145 0 214 36q133 70 133 293q0 181 -95 267q-45 40 -119 54q-22 4 -55 6t-78 2h-139v-289h243v-27h-243v-342h139zM173 631h132q45 0 78 -2t54 -6q54 -11 91 -34q64 -83 64 -230q0 -218 -127 -284q-68 -35 -210 -35h-82v275h243v41l-47 47v6h-196v222z" />
<glyph unicode="&#xd1;" horiz-adv-x="682" d="M72 0zM72 -9h6l47 -47h47v615l390 -568h4l47 -47h44v732l-47 47v6h-53v-622l-387 569l-41 40l-8 13h-49v-738zM82 719h34l451 -662v662h33v-719h-33l-452 661v-661h-33v719zM449 929q-1 -1 -3 -7l-4 -10q-2 -3 -4 -11q-5 -11 -12 -28v1q-13 -22 -31 -22q-12 0 -47 32 q-42 39 -61 39q-40 0 -84 -86l31 -31q0 2 1 3l48 -48q34 63 54 64h1q10 0 38 -28l5 -5q38 -39 64 -37q30 1 48 24l1 1q6 10 15 27q1 2 2.5 4.5t3.5 6.5l2 2q2 4 4.5 8t4.5 8l-26 37l-39 39zM467 886q-7 -12 -14 -25t-15 -27q-16 -21 -43 -22q-16 0 -60 35q-42 36 -48 35 q-26 -2 -56 -59l-16 16q38 74 72 74q14 0 53 -36q40 -35 55 -35q25 0 40 27q4 10 8 19.5t9 18.5z" />
<glyph unicode="&#xd2;" horiz-adv-x="741" d="M42 0zM42 359q0 -166 77 -270q13 -17 26 -30t27 -24l25 -25q82 -81 223 -81q163 0 249 111q77 101 77 269q0 169 -76 269q-11 15 -27 31l-21 21q-85 115 -252 115q-165 0 -250 -115q-78 -102 -78 -271zM52 359q0 163 75 264q84 112 243 112q161 0 244 -111 q75 -99 75 -265q0 -167 -75 -264q-82 -109 -244 -109q-160 0 -244 109q-74 100 -74 264zM87 359q0 -149 65 -241q74 -104 218 -104q145 0 219 104q65 92 65 241t-66 241q-75 105 -218 105q-145 0 -218 -105q-65 -92 -65 -241zM144 309q0 146 63 236q72 103 213 103 q86 0 151 -42l9 -12q64 -85 64 -235q0 -148 -63 -235q-72 -100 -211 -100q-100 0 -165 52q-61 91 -61 233zM420 732h70l-111 174l-39 39l-9 14h-78l115 -180h5zM374 789l-102 160h53l102 -160h-53z" />
<glyph unicode="&#xd3;" horiz-adv-x="741" d="M42 0zM42 359q0 -166 77 -270q13 -17 26 -30t27 -24l25 -25q82 -81 223 -81q163 0 249 111q77 101 77 269q0 169 -76 269q-11 15 -27 31l-21 21q-85 115 -252 115q-165 0 -250 -115q-78 -102 -78 -271zM52 359q0 163 75 264q84 112 243 112q161 0 244 -111 q75 -99 75 -265q0 -167 -75 -264q-82 -109 -244 -109q-160 0 -244 109q-74 100 -74 264zM87 359q0 -149 65 -241q74 -104 218 -104q145 0 219 104q65 92 65 241t-66 241q-75 105 -218 105q-145 0 -218 -105q-65 -92 -65 -241zM144 309q0 146 63 236q72 103 213 103 q86 0 151 -42l9 -12q64 -85 64 -235q0 -148 -63 -235q-72 -100 -211 -100q-100 0 -165 52q-61 91 -61 233zM296 779h9l47 -47h71l110 174l-48 47l4 6h-78zM417 949h53l-101 -160h-54z" />
<glyph unicode="&#xd4;" horiz-adv-x="741" d="M42 0zM42 359q0 -166 77 -270q13 -17 26 -30t27 -24l25 -25q82 -81 223 -81q163 0 249 111q77 101 77 269q0 169 -76 269q-11 15 -27 31l-21 21q-85 115 -252 115q-165 0 -250 -115q-78 -102 -78 -271zM52 359q0 163 75 264q84 112 243 112q161 0 244 -111 q75 -99 75 -265q0 -167 -75 -264q-82 -109 -244 -109q-160 0 -244 109q-74 100 -74 264zM87 359q0 -149 65 -241q74 -104 218 -104q145 0 219 104q65 92 65 241t-66 241q-75 105 -218 105q-145 0 -218 -105q-65 -92 -65 -241zM144 309q0 146 63 236q72 103 213 103 q86 0 151 -42l9 -12q64 -85 64 -235q0 -148 -63 -235q-72 -100 -211 -100q-100 0 -165 52q-61 91 -61 233zM228 779h9l47 -47h55l70 108l43 -66h4l48 -47l52 6l-107 173l-40 39l-8 14h-60zM347 949h48l99 -160l-36 -4l-87 136l-86 -132h-38z" />
<glyph unicode="&#xd5;" horiz-adv-x="741" d="M42 0zM42 359q0 -166 77 -270q13 -17 26 -30t27 -24l25 -25q82 -81 223 -81q163 0 249 111q77 101 77 269q0 169 -76 269q-11 15 -27 31l-21 21q-85 115 -252 115q-165 0 -250 -115q-78 -102 -78 -271zM52 359q0 163 75 264q84 112 243 112q161 0 244 -111 q75 -99 75 -265q0 -167 -75 -264q-82 -109 -244 -109q-160 0 -244 109q-74 100 -74 264zM87 359q0 -149 65 -241q74 -104 218 -104q145 0 219 104q65 92 65 241t-66 241q-75 105 -218 105q-145 0 -218 -105q-65 -92 -65 -241zM144 309q0 146 63 236q72 103 213 103 q86 0 151 -42l9 -12q64 -85 64 -235q0 -148 -63 -235q-72 -100 -211 -100q-100 0 -165 52q-61 91 -61 233zM479 929q-1 -1 -3 -7l-4 -10q-2 -3 -4 -11q-5 -11 -12 -28v1q-13 -22 -31 -22q-12 0 -47 32q-42 39 -61 39q-40 0 -84 -86l31 -31q0 2 1 3l48 -48q34 63 54 64h1 q10 0 38 -28l5 -5q38 -39 64 -37q30 1 48 24l1 1q6 10 15 27q1 2 2.5 4.5t3.5 6.5l2 2q2 4 4.5 8t4.5 8l-26 37l-39 39zM497 886q-7 -12 -14 -25t-15 -27q-16 -21 -43 -22q-16 0 -60 35q-42 36 -48 35q-26 -2 -56 -59l-16 16q38 74 72 74q14 0 53 -36q40 -35 55 -35 q25 0 40 27q4 10 8 19.5t9 18.5z" />
<glyph unicode="&#xd6;" horiz-adv-x="741" d="M42 0zM42 359q0 -166 77 -270q13 -17 26 -30t27 -24l25 -25q82 -81 223 -81q163 0 249 111q77 101 77 269q0 169 -76 269q-11 15 -27 31l-21 21q-85 115 -252 115q-165 0 -250 -115q-78 -102 -78 -271zM52 359q0 163 75 264q84 112 243 112q161 0 244 -111 q75 -99 75 -265q0 -167 -75 -264q-82 -109 -244 -109q-160 0 -244 109q-74 100 -74 264zM87 359q0 -149 65 -241q74 -104 218 -104q145 0 219 104q65 92 65 241t-66 241q-75 105 -218 105q-145 0 -218 -105q-65 -92 -65 -241zM144 309q0 146 63 236q72 103 213 103 q86 0 151 -42l9 -12q64 -85 64 -235q0 -148 -63 -235q-72 -100 -211 -100q-100 0 -165 52q-61 91 -61 233zM263 866q0 -50 22 -57l43 -42q6 -6 16 -6q29 0 29 55q0 36 -12 48l-41 41q-8 18 -26 18q-31 0 -31 -57zM417 868q0 -51 23 -57l42 -41q7 -7 17 -7q29 0 29 55 q0 35 -12 47l-40 40q-7 19 -27 19q-32 0 -32 -56zM427 868q0 46 22 46t22 -46q0 -48 -22 -48t-22 48zM273 866q0 47 21 47q22 0 22 -47q0 -48 -22 -48q-21 0 -21 48z" />
<glyph unicode="&#xd7;" horiz-adv-x="684" d="M126 522l186 -224l-184 -221h9l47 -47h52l150 179l109 -132h4l47 -47h54l-182 218l184 221l-48 48l4 5h-60l-154 -186l-109 133l-30 30l-19 23h-60zM502 512h36l-178 -214l176 -211h-37l-157 189l-158 -189h-36l176 211l-178 214h36l160 -193z" />
<glyph unicode="&#xd8;" horiz-adv-x="741" d="M22 -8l25 -21l29 -29l34 -28l85 99q94 -85 221 -85q166 0 253 111q77 101 77 270q0 155 -72 262l90 105l-48 48l2 2l-37 36l-88 -100q-85 82 -220 82q-169 0 -254 -112q-77 -101 -77 -273q0 -156 71 -262zM126 97q-74 104 -74 262q0 168 74 266q82 109 247 109 q141 0 221 -86l87 100l23 -22l-89 -104q74 -107 74 -263q0 -169 -76 -266q-84 -108 -247 -108q-129 0 -221 89l-86 -101l-23 19zM369 704q-144 0 -218 -104q-64 -89 -64 -241q0 -143 62 -235q92 -110 222 -110q142 0 217 105q66 91 66 240t-67 241q-77 104 -218 104z M144 309q0 147 62 236q70 102 213 102q90 0 151 -43q74 -95 74 -245q0 -143 -64 -234q-71 -101 -209 -101q-98 0 -171 61q-56 89 -56 224zM329 349q0 -26 18 -32l42 -41q7 -7 21 -7q28 0 28 30q0 16 -8 24l-1 1v-1l-1 1h1l-40 39q-5 20 -29 20q-31 0 -31 -34zM339 349 q0 24 21 24t21 -24q0 -23 -21 -23t-21 23z" />
<glyph unicode="&#xd9;" horiz-adv-x="671" d="M67 0zM67 729v-478q0 -129 70 -202q16 -17 30 -27l24 -22q74 -71 195 -71q128 0 197 71.5t69 200.5v475l-47 47v6h-53v-462q0 -116 -50 -177q-56 -66 -166 -66q-84 0 -135 36q-34 58 -34 157v459l-47 47v6h-53zM110 719v-452q0 -253 226 -253t226 253v452h33v-468 q0 -126 -67 -195.5t-192 -69.5t-192 69.5t-67 195.5v468h33zM385 732h70l-111 174l-39 39l-9 14h-78l115 -180h5zM339 789l-102 160h53l102 -160h-53z" />
<glyph unicode="&#xda;" horiz-adv-x="671" d="M67 0zM67 729v-478q0 -129 70 -202q16 -17 30 -27l24 -22q74 -71 195 -71q128 0 197 71.5t69 200.5v475l-47 47v6h-53v-462q0 -116 -50 -177q-56 -66 -166 -66q-84 0 -135 36q-34 58 -34 157v459l-47 47v6h-53zM110 719v-452q0 -253 226 -253t226 253v452h33v-468 q0 -126 -67 -195.5t-192 -69.5t-192 69.5t-67 195.5v468h33zM261 779h9l47 -47h71l110 174l-48 47l4 6h-78zM382 949h53l-101 -160h-54z" />
<glyph unicode="&#xdb;" horiz-adv-x="671" d="M67 0zM67 729v-478q0 -129 70 -202q16 -17 30 -27l24 -22q74 -71 195 -71q128 0 197 71.5t69 200.5v475l-47 47v6h-53v-462q0 -116 -50 -177q-56 -66 -166 -66q-84 0 -135 36q-34 58 -34 157v459l-47 47v6h-53zM110 719v-452q0 -253 226 -253t226 253v452h33v-468 q0 -126 -67 -195.5t-192 -69.5t-192 69.5t-67 195.5v468h33zM193 779h9l47 -47h55l70 108l43 -66h4l48 -47l52 6l-107 173l-40 39l-8 14h-60zM312 949h48l99 -160l-36 -4l-87 136l-86 -132h-38z" />
<glyph unicode="&#xdc;" horiz-adv-x="671" d="M67 0zM67 729v-478q0 -129 70 -202q16 -17 30 -27l24 -22q74 -71 195 -71q128 0 197 71.5t69 200.5v475l-47 47v6h-53v-462q0 -116 -50 -177q-56 -66 -166 -66q-84 0 -135 36q-34 58 -34 157v459l-47 47v6h-53zM110 719v-452q0 -253 226 -253t226 253v452h33v-468 q0 -126 -67 -195.5t-192 -69.5t-192 69.5t-67 195.5v468h33zM228 866q0 -50 22 -57l43 -42q6 -6 16 -6q29 0 29 55q0 36 -12 48l-41 41q-8 18 -26 18q-31 0 -31 -57zM382 868q0 -51 23 -57l42 -41q7 -7 17 -7q29 0 29 55q0 35 -12 47l-40 40q-7 19 -27 19q-32 0 -32 -56z M392 868q0 46 22 46t22 -46q0 -48 -22 -48t-22 48zM238 866q0 47 21 47q22 0 22 -47q0 -48 -22 -48q-21 0 -21 48z" />
<glyph unicode="&#xdd;" horiz-adv-x="530" d="M0 0zM238 -9h6l47 -47h47v319l253 413l-48 47l4 6h-63l-211 -345l-180 292l-40 40l-8 13h-62l255 -417v-321zM248 318l-247 401h38l227 -367l224 367h38l-247 -403v-316h-33v318zM190 779h9l47 -47h71l110 174l-48 47l4 6h-78zM311 949h53l-101 -160h-54z" />
<glyph unicode="&#xde;" horiz-adv-x="527" d="M173 676l-47 47v6h-54v-738h6l47 -47h48v188h152q194 0 226 108q9 30 9 91q0 66 -7 90q-11 37 -32 57l-31 30q-18 27 -39 40q-59 37 -173 37h-105v91zM82 0v719h34v-144h162q107 0 167 -36q37 -22 51 -70q7 -24 7 -88q0 -59 -9 -89q-31 -103 -219 -103h-159v-189h-34z M116 219h137q84 0 122 9q68 17 84 74q9 30 9 87q0 49 -9 78q-10 34 -43 53q-46 26 -162 26h-138v-327zM173 489h131q95 0 143 -19l2 -6q9 -27 9 -75q0 -54 -9 -84q-16 -51 -77 -67q-35 -9 -119 -9h-80v260z" />
<glyph unicode="&#xdf;" horiz-adv-x="488" d="M59 -9h6l47 -47h35v-13h6l47 -47l93 1q157 2 203 150q17 56 17 99q0 79 -35 138h-1q-5 9 -13 19.5t-19 23.5l-6 5l-1 1h1l-20 19q-4 5 -8 10.5t-9 10.5q69 42 69 140q0 87 -48 135l-30 30q-50 72 -158 72q-118 0 -162 -74h1q-16 -22 -16 -68zM214 331h68q54 0 95 -23 q34 -52 34 -125q0 -87 -42 -141q-46 -58 -128 -58q-64 0 -79 -5v4h-3v494q0 6 0.5 14.5t0.5 18.5t0.5 18.5t0.5 14.5v10q-1 5 -1 10v3q0 36 41 59q34 18 85 18q39 0 66 -12q17 -36 17 -82q0 -124 -133 -124h-33q-7 0 -12 1h-30v-48h6zM68 596q0 39 14 62q43 70 153 70 q85 0 132 -46t47 -131q0 -113 -98 -149q67 -16 106 -84q34 -58 34 -134q0 -23 -4.5 -48t-12.5 -49.5t-19.5 -47t-25.5 -38.5q-49 -57 -151 -59l-86 -1v32h1q-2 1 16 1h67q88 0 136 62q44 58 44 147q0 46 -12.5 84t-36.5 65t-59.5 41.5t-80.5 14.5h-61v28h33q11 -1 19 -1h13 q143 0 143 134q0 151 -143 151q-50 0 -87 -18q-48 -24 -46 -69q1 -20 0 -45q-1 -13 -1 -23v-18v-527h-33zM439 320h1l-1 1v-1z" />
<glyph unicode="&#xe0;" horiz-adv-x="572" d="M36 0zM163 -8q61 -61 162 -61q95 0 151 51l38 -38h45v532l-47 47v6h-51v-80l-9 9q-60 82 -177 82q-120 0 -183 -85q-56 -77 -56 -197t56 -197q20 -27 45 -44zM471 112q-49 -124 -196 -124q-114 0 -175 79q-54 70 -54 191q0 119 54 191q60 81 175 81q145 0 196 -130v119 h31v-519h-31v112zM78 258q0 -105 45 -169q52 -75 152 -75t151 75q45 64 45 169q0 104 -45 169q-51 75 -151 75q-99 0 -151 -75q-46 -65 -46 -169zM135 208q0 99 44 164q49 73 146 73q54 0 91 -22l2 -2q43 -62 43 -163t-42 -162q-50 -72 -144 -72q-63 0 -104 29 q-36 60 -36 155zM295 527h70l-111 174l-39 39l-9 14h-78l115 -180h5zM249 584l-102 160h53l102 -160h-53z" />
<glyph unicode="&#xe1;" horiz-adv-x="572" d="M36 0zM163 -8q61 -61 162 -61q95 0 151 51l38 -38h45v532l-47 47v6h-51v-80l-9 9q-60 82 -177 82q-120 0 -183 -85q-56 -77 -56 -197t56 -197q20 -27 45 -44zM471 112q-49 -124 -196 -124q-114 0 -175 79q-54 70 -54 191q0 119 54 191q60 81 175 81q145 0 196 -130v119 h31v-519h-31v112zM78 258q0 -105 45 -169q52 -75 152 -75t151 75q45 64 45 169q0 104 -45 169q-51 75 -151 75q-99 0 -151 -75q-46 -65 -46 -169zM135 208q0 99 44 164q49 73 146 73q54 0 91 -22l2 -2q43 -62 43 -163t-42 -162q-50 -72 -144 -72q-63 0 -104 29 q-36 60 -36 155zM171 574h9l47 -47h71l110 174l-48 47l4 6h-78zM292 744h53l-101 -160h-54z" />
<glyph unicode="&#xe2;" horiz-adv-x="572" d="M36 0zM163 -8q61 -61 162 -61q95 0 151 51l38 -38h45v532l-47 47v6h-51v-80l-9 9q-60 82 -177 82q-120 0 -183 -85q-56 -77 -56 -197t56 -197q20 -27 45 -44zM471 112q-49 -124 -196 -124q-114 0 -175 79q-54 70 -54 191q0 119 54 191q60 81 175 81q145 0 196 -130v119 h31v-519h-31v112zM78 258q0 -105 45 -169q52 -75 152 -75t151 75q45 64 45 169q0 104 -45 169q-51 75 -151 75q-99 0 -151 -75q-46 -65 -46 -169zM135 208q0 99 44 164q49 73 146 73q54 0 91 -22l2 -2q43 -62 43 -163t-42 -162q-50 -72 -144 -72q-63 0 -104 29 q-36 60 -36 155zM126 574h9l47 -47h55l70 108l43 -66h4l48 -47l52 6l-107 173l-40 39l-8 14h-60zM245 744h48l99 -160l-36 -4l-87 136l-86 -132h-38z" />
<glyph unicode="&#xe3;" horiz-adv-x="572" d="M36 0zM163 -8q61 -61 162 -61q95 0 151 51l38 -38h45v532l-47 47v6h-51v-80l-9 9q-60 82 -177 82q-120 0 -183 -85q-56 -77 -56 -197t56 -197q20 -27 45 -44zM471 112q-49 -124 -196 -124q-114 0 -175 79q-54 70 -54 191q0 119 54 191q60 81 175 81q145 0 196 -130v119 h31v-519h-31v112zM78 258q0 -105 45 -169q52 -75 152 -75t151 75q45 64 45 169q0 104 -45 169q-51 75 -151 75q-99 0 -151 -75q-46 -65 -46 -169zM135 208q0 99 44 164q49 73 146 73q54 0 91 -22l2 -2q43 -62 43 -163t-42 -162q-50 -72 -144 -72q-63 0 -104 29 q-36 60 -36 155zM377 724q-1 -1 -3 -7l-4 -10q-2 -3 -4 -11q-5 -11 -12 -28v1q-13 -22 -31 -22q-12 0 -47 32q-42 39 -61 39q-40 0 -84 -86l31 -31q0 2 1 3l48 -48q34 63 54 64h1q10 0 38 -28l5 -5q38 -39 64 -37q30 1 48 24l1 1q6 10 15 27q1 2 2.5 4.5t3.5 6.5l2 2 q2 4 4.5 8t4.5 8l-26 37l-39 39zM395 681q-7 -12 -14 -25t-15 -27q-16 -21 -43 -22q-16 0 -60 35q-42 36 -48 35q-26 -2 -56 -59l-16 16q38 74 72 74q14 0 53 -36q40 -35 55 -35q25 0 40 27q4 10 8 19.5t9 18.5z" />
<glyph unicode="&#xe4;" horiz-adv-x="572" d="M36 0zM163 -8q61 -61 162 -61q95 0 151 51l38 -38h45v532l-47 47v6h-51v-80l-9 9q-60 82 -177 82q-120 0 -183 -85q-56 -77 -56 -197t56 -197q20 -27 45 -44zM471 112q-49 -124 -196 -124q-114 0 -175 79q-54 70 -54 191q0 119 54 191q60 81 175 81q145 0 196 -130v119 h31v-519h-31v112zM78 258q0 -105 45 -169q52 -75 152 -75t151 75q45 64 45 169q0 104 -45 169q-51 75 -151 75q-99 0 -151 -75q-46 -65 -46 -169zM135 208q0 99 44 164q49 73 146 73q54 0 91 -22l2 -2q43 -62 43 -163t-42 -162q-50 -72 -144 -72q-63 0 -104 29 q-36 60 -36 155zM161 661q0 -50 22 -57l43 -42q6 -6 16 -6q29 0 29 55q0 36 -12 48l-41 41q-8 18 -26 18q-31 0 -31 -57zM315 663q0 -51 23 -57l42 -41q7 -7 17 -7q29 0 29 55q0 35 -12 47l-40 40q-7 19 -27 19q-32 0 -32 -56zM325 663q0 46 22 46t22 -46q0 -48 -22 -48 t-22 48zM171 661q0 47 21 47q22 0 22 -47q0 -48 -22 -48q-21 0 -21 48z" />
<glyph unicode="&#xe5;" horiz-adv-x="572" d="M160 665q0 -71 55 -102l25 -25q-103 -10 -157 -96q-47 -74 -47 -184q0 -120 56 -197q20 -27 45 -44l26 -25q61 -61 162 -61q95 0 151 51l38 -38h45v532l-47 47v6h-51v-80l-9 9q-23 33 -63 56q56 30 56 101q0 51 -33 83l-31 30q-32 56 -102 56q-52 0 -85.5 -33.5 t-33.5 -85.5zM471 112q-49 -124 -196 -124q-114 0 -175 79q-54 70 -54 191q0 119 54 191q60 81 175 81q145 0 196 -130v119h31v-519h-31v112zM78 258q0 -105 45 -169q52 -75 152 -75t151 75q45 64 45 169q0 104 -45 169q-51 75 -151 75q-99 0 -151 -75q-46 -65 -46 -169z M135 208q0 99 44 164q49 73 146 73q54 0 91 -22l2 -2q43 -62 43 -163t-42 -162q-50 -72 -144 -72q-63 0 -104 29q-36 60 -36 155zM170 665q0 48 30.5 78.5t78.5 30.5t78.5 -30.5t30.5 -78.5t-30.5 -78.5t-78.5 -30.5t-78.5 30.5t-30.5 78.5zM198 666q0 -35 23 -58.5 t58 -23.5t58 23.5t23 58.5t-23 58t-58 23q-34 0 -57.5 -23.5t-23.5 -57.5zM255 616q0 31 21.5 52.5t52.5 21.5q4 0 8.5 -0.5t9.5 -1.5q3 -11 3 -22q0 -31 -20 -51.5t-51 -20.5q-13 0 -23 3q-1 3 -1 9v10z" />
<glyph unicode="&#xe6;" horiz-adv-x="944" d="M903 169h-40q-17 -63 -61 -100.5t-108 -37.5q-53 0 -92 27q-38 62 -38 147v1h405v26q0 136 -73 206l-25 24q-1 2 -1.5 2.5t-1.5 2.5q-59 80 -174 80q-91 0 -150 -56l-32 32v6h-51v-80l-9 9q-60 82 -177 82q-120 0 -183 -85q-56 -77 -56 -197t56 -197q20 -27 45 -44 l26 -25q61 -61 162 -61q95 0 151 51l38 -38h45v81q3 -3 7 -5l26 -25q57 -57 152 -57q82 0 139.5 44t75.5 125l-7 9l-40 40v1zM902 159q-17 -78 -72 -121t-136 -43q-111 0 -169 81q-16 22 -23 42v-118h-31v112q-49 -124 -196 -124q-114 0 -175 79q-54 70 -54 191 q0 119 54 191q60 81 175 81q145 0 196 -130v119h31v-107q5 11 10.5 21t12.5 20q58 84 169 84q108 0 166 -76q52 -67 52 -179v-19h-405v-8q0 -96 45 -160q51 -74 142 -74q66 0 113 37t64 101h31zM78 258q0 -105 45 -169q52 -75 152 -75t151 75q45 64 45 169q0 104 -45 169 q-51 75 -151 75q-99 0 -151 -75q-46 -65 -46 -169zM135 208q0 99 44 164q49 73 146 73q54 0 91 -22l2 -2q43 -62 43 -163t-42 -162q-50 -72 -144 -72q-63 0 -104 29q-36 60 -36 155zM878 292q0 90 -43 149q-50 68 -135 68q-90 0 -141 -66q-45 -57 -51 -151h370zM614 389 q49 63 136 63q44 0 79 -20q35 -51 39 -130h-296q12 48 42 87z" />
<glyph unicode="&#xe7;" horiz-adv-x="519" d="M34 0zM472 134l-40 23q-15 -59 -56 -96q-43 -37 -104 -37t-103 30q-36 61 -36 154q0 102 43 164q49 73 146 73q48 0 82 -19q3 -5 8 -15.5t12 -27.5l4 2l48 -47l40 26q-16 43 -44 69l-29 28q-55 79 -171 79q-119 0 -182 -86q-56 -77 -56 -196t55 -195q20 -29 48 -49 l26 -24q62 -59 156 -59q90 0 145 49q41 35 59 93l-3 8l-45 45zM466 125q-42 -137 -197 -137q-114 0 -172 81q-53 73 -53 189t54 190q60 82 174 82q141 0 185 -113l-27 -18q-17 49 -60.5 76t-97.5 27q-100 0 -151 -75q-45 -65 -45 -169q0 -105 45 -169q51 -75 151 -75 q63 0 107.5 33.5t59.5 93.5zM242 -225h6l47 -47h41q106 0 106 90q0 36 -20 56l-36 36q-15 29 -54 38v10l-47 46v6h-45v-101h6l47 -47h54q-1 -40 -59 -40h-46v-47zM252 -188h36q69 0 69 51q0 56 -79 56h-28v81h25v-57h12q98 0 98 -75q0 -83 -99 -83h-34v27z" />
<glyph unicode="&#xe8;" horiz-adv-x="523" d="M33 0zM473 122l-45 24q-47 -122 -165 -122q-53 0 -92 27q-38 62 -38 147v1h405v26q0 116 -53 184q-11 13 -18 21l-27 26q-1 2 -1.5 2.5t-1.5 2.5q-58 79 -174 79q-115 0 -176 -87q-54 -75 -54 -195q0 -116 53 -195q11 -16 24 -29t28 -23l24 -23q57 -57 151 -57 q81 0 138 45v1q45 35 68 94l-48 47q1 1 1 2t1 2zM263 -12q-112 0 -170 82q-50 71 -50 188q0 114 51 188q58 84 169 84q109 0 166 -75q52 -67 52 -180v-19h-405v-8q0 -96 45 -160q51 -74 142 -74q126 0 171 118l26 -14q-24 -63 -76 -96.5t-121 -33.5zM447 285q0 91 -43 150 q-48 67 -135 67q-91 0 -141 -65q-45 -57 -51 -152h370zM184 383h-1q50 62 136 62q44 0 79 -20q35 -51 39 -130h-295q15 53 42 88zM315 527h70l-111 174l-39 39l-9 14h-78l115 -180h5zM269 584l-102 160h53l102 -160h-53z" />
<glyph unicode="&#xe9;" horiz-adv-x="523" d="M33 0zM473 122l-45 24q-47 -122 -165 -122q-53 0 -92 27q-38 62 -38 147v1h405v26q0 116 -53 184q-11 13 -18 21l-27 26q-1 2 -1.5 2.5t-1.5 2.5q-58 79 -174 79q-115 0 -176 -87q-54 -75 -54 -195q0 -116 53 -195q11 -16 24 -29t28 -23l24 -23q57 -57 151 -57 q81 0 138 45v1q45 35 68 94l-48 47q1 1 1 2t1 2zM263 -12q-112 0 -170 82q-50 71 -50 188q0 114 51 188q58 84 169 84q109 0 166 -75q52 -67 52 -180v-19h-405v-8q0 -96 45 -160q51 -74 142 -74q126 0 171 118l26 -14q-24 -63 -76 -96.5t-121 -33.5zM447 285q0 91 -43 150 q-48 67 -135 67q-91 0 -141 -65q-45 -57 -51 -152h370zM184 383h-1q50 62 136 62q44 0 79 -20q35 -51 39 -130h-295q15 53 42 88zM191 574h9l47 -47h71l110 174l-48 47l4 6h-78zM312 744h53l-101 -160h-54z" />
<glyph unicode="&#xea;" horiz-adv-x="523" d="M33 0zM473 122l-45 24q-47 -122 -165 -122q-53 0 -92 27q-38 62 -38 147v1h405v26q0 116 -53 184q-11 13 -18 21l-27 26q-1 2 -1.5 2.5t-1.5 2.5q-58 79 -174 79q-115 0 -176 -87q-54 -75 -54 -195q0 -116 53 -195q11 -16 24 -29t28 -23l24 -23q57 -57 151 -57 q81 0 138 45v1q45 35 68 94l-48 47q1 1 1 2t1 2zM263 -12q-112 0 -170 82q-50 71 -50 188q0 114 51 188q58 84 169 84q109 0 166 -75q52 -67 52 -180v-19h-405v-8q0 -96 45 -160q51 -74 142 -74q126 0 171 118l26 -14q-24 -63 -76 -96.5t-121 -33.5zM447 285q0 91 -43 150 q-48 67 -135 67q-91 0 -141 -65q-45 -57 -51 -152h370zM184 383h-1q50 62 136 62q44 0 79 -20q35 -51 39 -130h-295q15 53 42 88zM123 574h9l47 -47h55l70 108l43 -66h4l48 -47l52 6l-107 173l-40 39l-8 14h-60zM242 744h48l99 -160l-36 -4l-87 136l-86 -132h-38z" />
<glyph unicode="&#xeb;" horiz-adv-x="523" d="M33 0zM473 122l-45 24q-47 -122 -165 -122q-53 0 -92 27q-38 62 -38 147v1h405v26q0 116 -53 184q-11 13 -18 21l-27 26q-1 2 -1.5 2.5t-1.5 2.5q-58 79 -174 79q-115 0 -176 -87q-54 -75 -54 -195q0 -116 53 -195q11 -16 24 -29t28 -23l24 -23q57 -57 151 -57 q81 0 138 45v1q45 35 68 94l-48 47q1 1 1 2t1 2zM263 -12q-112 0 -170 82q-50 71 -50 188q0 114 51 188q58 84 169 84q109 0 166 -75q52 -67 52 -180v-19h-405v-8q0 -96 45 -160q51 -74 142 -74q126 0 171 118l26 -14q-24 -63 -76 -96.5t-121 -33.5zM447 285q0 91 -43 150 q-48 67 -135 67q-91 0 -141 -65q-45 -57 -51 -152h370zM184 383h-1q50 62 136 62q44 0 79 -20q35 -51 39 -130h-295q15 53 42 88zM158 661q0 -50 22 -57l43 -42q6 -6 16 -6q29 0 29 55q0 36 -12 48l-41 41q-8 18 -26 18q-31 0 -31 -57zM312 663q0 -51 23 -57l42 -41 q7 -7 17 -7q29 0 29 55q0 35 -12 47l-40 40q-7 19 -27 19q-32 0 -32 -56zM322 663q0 46 22 46t22 -46q0 -48 -22 -48t-22 48zM168 661q0 47 21 47q22 0 22 -47q0 -48 -22 -48q-21 0 -21 48z" />
<glyph unicode="&#xec;" horiz-adv-x="175" d="M0 0zM62 -9h6l47 -47h45v532l-47 47v6h-51v-538zM72 519h31v-519h-31v519zM139 527h70l-111 174l-39 39l-9 14h-78l115 -180h5zM93 584l-102 160h53l102 -160h-53z" />
<glyph unicode="&#xed;" horiz-adv-x="175" d="M15 0zM62 -9h6l47 -47h45v532l-47 47v6h-51v-538zM72 519h31v-519h-31v519zM15 574h9l47 -47h71l110 174l-48 47l4 6h-78zM136 744h53l-101 -160h-54z" />
<glyph unicode="&#xee;" horiz-adv-x="175" d="M0 0zM62 -9h6l47 -47h45v532l-47 47v6h-51v-538zM72 519h31v-519h-31v519zM-53 574h9l47 -47h55l70 108l43 -66h4l48 -47l52 6l-107 173l-40 39l-8 14h-60zM66 744h48l99 -160l-36 -4l-87 136l-86 -132h-38z" />
<glyph unicode="&#xef;" horiz-adv-x="175" d="M0 0zM62 -9h6l47 -47h45v532l-47 47v6h-51v-538zM72 519h31v-519h-31v519zM-18 661q0 -50 22 -57l43 -42q6 -6 16 -6q29 0 29 55q0 36 -12 48l-41 41q-8 18 -26 18q-31 0 -31 -57zM136 663q0 -51 23 -57l42 -41q7 -7 17 -7q29 0 29 55q0 35 -12 47l-40 40q-7 19 -27 19 q-32 0 -32 -56zM146 663q0 46 22 46t22 -46q0 -48 -22 -48t-22 48zM-8 661q0 47 21 47q22 0 22 -47q0 -48 -22 -48q-21 0 -21 48z" />
<glyph unicode="&#xf0;" d="M444 724l-77 -56q-57 39 -130 39q-87 0 -136 -52q-45 -48 -56 -136h6l47 -47h46q19 132 141 137l-71 -52l27 -40l3 2l48 -48l104 76q32 -78 35 -193l-21 20q-54 77 -160 77q-102 0 -160 -70q-53 -65 -53 -170q0 -99 54 -168q19 -24 38 -37l28 -26q56 -55 142 -55 q233 0 233 348q0 218 -83 313l70 51l-26 33l-33 33zM459 688l-70 -51q86 -92 86 -314q0 -341 -226 -341q-97 0 -151 67q-51 63 -51 162q0 101 50 163q54 67 153 67q151 0 190 -160q1 4 1 9v11v30q0 208 -77 288l-120 -88l-16 23l114 83q-41 29 -99 29q-135 0 -155 -137h-32 q8 79 55 123.5t126 44.5q78 0 131 -41l74 54zM82 211q0 -87 43 -140q47 -59 131 -59q83 0 126 61q40 55 40 139q0 86 -42 140q-47 59 -129 59q-84 0 -129 -60q-40 -52 -40 -140zM139 161q0 83 38 135q43 58 124 58q42 0 77 -18q34 -53 34 -124q0 -80 -37 -132 q-42 -58 -119 -58q-54 0 -92 26q-25 46 -25 113z" />
<glyph unicode="&#xf1;" d="M59 0zM59 -9h6l47 -47h46v284q0 29 1.5 51.5t3.5 37.5q21 127 164 127q32 0 67 -12q18 -36 18 -98v-343h6l47 -47h46v350q0 100 -48 147l-30 29q-45 70 -157 70q-85 0 -138 -44l-27 27v6h-52v-538zM69 519h32v-85q49 96 175 96q178 0 178 -186v-344h-32v334q0 83 -30 122 q-35 45 -115 45q-149 0 -171 -133q-2 -14 -3.5 -36.5t-1.5 -53.5v-278h-32v519zM369 724q-1 -1 -3 -7l-4 -10q-2 -3 -4 -11q-5 -11 -12 -28v1q-13 -22 -31 -22q-12 0 -47 32q-42 39 -61 39q-40 0 -84 -86l31 -31q0 2 1 3l48 -48q34 63 54 64h1q10 0 38 -28l5 -5 q38 -39 64 -37q30 1 48 24l1 1q6 10 15 27q1 2 2.5 4.5t3.5 6.5l2 2q2 4 4.5 8t4.5 8l-26 37l-39 39zM387 681q-7 -12 -14 -25t-15 -27q-16 -21 -43 -22q-16 0 -60 35q-42 36 -48 35q-26 -2 -56 -59l-16 16q38 74 72 74q14 0 53 -36q40 -35 55 -35q25 0 40 27q4 10 8 19.5 t9 18.5z" />
<glyph unicode="&#xf2;" horiz-adv-x="545" d="M34 0zM34 258q0 -120 56 -197q20 -27 45 -44l26 -25q61 -61 161 -61q119 0 181 81q55 73 55 196q0 142 -77 219l-23 23q-1 1 -1.5 2t-1.5 2q-62 86 -183 86q-119 0 -182 -86q-56 -77 -56 -196zM44 258q0 116 54 190q60 82 174 82q113 0 175 -81q54 -74 54 -191 q0 -121 -54 -191q-61 -79 -175 -79q-115 0 -175 80q-53 71 -53 190zM76 258q0 -105 45 -169q51 -75 151 -75q99 0 152 75q45 64 45 169q0 104 -45 169q-53 75 -152 75q-100 0 -151 -75q-45 -65 -45 -169zM133 208q0 102 43 164q49 73 146 73q52 0 93 -23v-1h1 q43 -62 43 -163t-42 -162q-50 -72 -145 -72q-61 0 -103 30q-36 61 -36 154zM322 527h70l-111 174l-39 39l-9 14h-78l115 -180h5zM276 584l-102 160h53l102 -160h-53z" />
<glyph unicode="&#xf3;" horiz-adv-x="545" d="M34 0zM34 258q0 -120 56 -197q20 -27 45 -44l26 -25q61 -61 161 -61q119 0 181 81q55 73 55 196q0 142 -77 219l-23 23q-1 1 -1.5 2t-1.5 2q-62 86 -183 86q-119 0 -182 -86q-56 -77 -56 -196zM44 258q0 116 54 190q60 82 174 82q113 0 175 -81q54 -74 54 -191 q0 -121 -54 -191q-61 -79 -175 -79q-115 0 -175 80q-53 71 -53 190zM76 258q0 -105 45 -169q51 -75 151 -75q99 0 152 75q45 64 45 169q0 104 -45 169q-53 75 -152 75q-100 0 -151 -75q-45 -65 -45 -169zM133 208q0 102 43 164q49 73 146 73q52 0 93 -23v-1h1 q43 -62 43 -163t-42 -162q-50 -72 -145 -72q-61 0 -103 30q-36 61 -36 154zM198 574h9l47 -47h71l110 174l-48 47l4 6h-78zM319 744h53l-101 -160h-54z" />
<glyph unicode="&#xf4;" horiz-adv-x="545" d="M34 0zM34 258q0 -120 56 -197q20 -27 45 -44l26 -25q61 -61 161 -61q119 0 181 81q55 73 55 196q0 142 -77 219l-23 23q-1 1 -1.5 2t-1.5 2q-62 86 -183 86q-119 0 -182 -86q-56 -77 -56 -196zM44 258q0 116 54 190q60 82 174 82q113 0 175 -81q54 -74 54 -191 q0 -121 -54 -191q-61 -79 -175 -79q-115 0 -175 80q-53 71 -53 190zM76 258q0 -105 45 -169q51 -75 151 -75q99 0 152 75q45 64 45 169q0 104 -45 169q-53 75 -152 75q-100 0 -151 -75q-45 -65 -45 -169zM133 208q0 102 43 164q49 73 146 73q52 0 93 -23v-1h1 q43 -62 43 -163t-42 -162q-50 -72 -145 -72q-61 0 -103 30q-36 61 -36 154zM130 574h9l47 -47h55l70 108l43 -66h4l48 -47l52 6l-107 173l-40 39l-8 14h-60zM249 744h48l99 -160l-36 -4l-87 136l-86 -132h-38z" />
<glyph unicode="&#xf5;" horiz-adv-x="545" d="M34 0zM34 258q0 -120 56 -197q20 -27 45 -44l26 -25q61 -61 161 -61q119 0 181 81q55 73 55 196q0 142 -77 219l-23 23q-1 1 -1.5 2t-1.5 2q-62 86 -183 86q-119 0 -182 -86q-56 -77 -56 -196zM44 258q0 116 54 190q60 82 174 82q113 0 175 -81q54 -74 54 -191 q0 -121 -54 -191q-61 -79 -175 -79q-115 0 -175 80q-53 71 -53 190zM76 258q0 -105 45 -169q51 -75 151 -75q99 0 152 75q45 64 45 169q0 104 -45 169q-53 75 -152 75q-100 0 -151 -75q-45 -65 -45 -169zM133 208q0 102 43 164q49 73 146 73q52 0 93 -23v-1h1 q43 -62 43 -163t-42 -162q-50 -72 -145 -72q-61 0 -103 30q-36 61 -36 154zM381 724q-1 -1 -3 -7l-4 -10q-2 -3 -4 -11q-5 -11 -12 -28v1q-13 -22 -31 -22q-12 0 -47 32q-42 39 -61 39q-40 0 -84 -86l31 -31q0 2 1 3l48 -48q34 63 54 64h1q10 0 38 -28l5 -5q38 -39 64 -37 q30 1 48 24l1 1q6 10 15 27q1 2 2.5 4.5t3.5 6.5l2 2q2 4 4.5 8t4.5 8l-26 37l-39 39zM399 681q-7 -12 -14 -25t-15 -27q-16 -21 -43 -22q-16 0 -60 35q-42 36 -48 35q-26 -2 -56 -59l-16 16q38 74 72 74q14 0 53 -36q40 -35 55 -35q25 0 40 27q4 10 8 19.5t9 18.5z" />
<glyph unicode="&#xf6;" horiz-adv-x="545" d="M34 0zM34 258q0 -120 56 -197q20 -27 45 -44l26 -25q61 -61 161 -61q119 0 181 81q55 73 55 196q0 142 -77 219l-23 23q-1 1 -1.5 2t-1.5 2q-62 86 -183 86q-119 0 -182 -86q-56 -77 -56 -196zM44 258q0 116 54 190q60 82 174 82q113 0 175 -81q54 -74 54 -191 q0 -121 -54 -191q-61 -79 -175 -79q-115 0 -175 80q-53 71 -53 190zM76 258q0 -105 45 -169q51 -75 151 -75q99 0 152 75q45 64 45 169q0 104 -45 169q-53 75 -152 75q-100 0 -151 -75q-45 -65 -45 -169zM133 208q0 102 43 164q49 73 146 73q52 0 93 -23v-1h1 q43 -62 43 -163t-42 -162q-50 -72 -145 -72q-61 0 -103 30q-36 61 -36 154zM165 661q0 -50 22 -57l43 -42q6 -6 16 -6q29 0 29 55q0 36 -12 48l-41 41q-8 18 -26 18q-31 0 -31 -57zM319 663q0 -51 23 -57l42 -41q7 -7 17 -7q29 0 29 55q0 35 -12 47l-40 40q-7 19 -27 19 q-32 0 -32 -56zM329 663q0 46 22 46t22 -46q0 -48 -22 -48t-22 48zM175 661q0 47 21 47q22 0 22 -47q0 -48 -22 -48q-21 0 -21 48z" />
<glyph unicode="&#xf7;" horiz-adv-x="746" d="M100 323v-50h6l47 -47h550v44l-47 47v6h-556zM646 313v-30h-536v30h536zM374 498q-41 0 -41 -55q0 -42 24 -52l41 -40q9 -9 26 -9q36 0 36 51q0 31 -12 43l-40 40q-9 22 -34 22zM374 206q-41 0 -41 -55q0 -42 24 -52l41 -40q9 -9 26 -9q36 0 36 52q0 29 -13 42l-39 38 q-9 24 -34 24zM374 488q29 0 29 -45q0 -44 -29 -44q-31 0 -31 44q0 45 31 45zM374 196q29 0 29 -44q0 -45 -29 -45q-31 0 -31 44q0 45 31 45z" />
<glyph unicode="&#xf8;" horiz-adv-x="545" d="M16 -1l34 -32l1 1l19 -19l30 -28l62 71q64 -61 161 -61q121 0 183 83q53 74 53 200q0 105 -48 176l64 74l-48 48l2 2l-36 34l-60 -70q-68 62 -160 62q-119 0 -182 -85q-57 -75 -57 -198q0 -106 47 -183zM94 74q-50 74 -50 183q0 117 54 191q60 82 175 82q98 0 161 -66 l60 70l21 -20l-63 -73q50 -71 50 -177q0 -124 -52 -195q-59 -81 -177 -81q-98 0 -161 63l-62 -70l-20 19zM273 14q100 0 151 75q45 64 45 169q0 106 -46 170q-53 74 -154 74q-96 0 -148 -78q-45 -68 -45 -168q0 -168 110 -222q42 -20 87 -20zM273 24q-63 0 -104 32 q-36 60 -36 150q0 99 43 163q49 76 143 76q51 0 95 -24q45 -59 45 -163q0 -101 -42 -162q-50 -72 -144 -72zM238 249q0 -28 20 -33l41 -41q7 -7 20 -7q28 0 28 31q0 16 -7 23l-42 42q-6 18 -29 18q-31 0 -31 -33zM248 249q0 23 21 23t21 -23q0 -24 -21 -24t-21 24z" />
<glyph unicode="&#xf9;" d="M57 0zM461 529h-51v-291q0 -26 -1.5 -48.5t-3.5 -41.5v1q-22 -124 -161 -124q-42 0 -75 14q-14 36 -14 93v344l-47 47v6h-51v-357q0 -120 71 -167l30 -28q47 -46 137 -46q86 0 138 43l30 -30h45v532l-47 47v6zM451 0h-31v81q-50 -93 -175 -93q-178 0 -178 184v347h31 v-337q0 -82 31 -122q34 -45 115 -45q148 0 171 132q2 14 3.5 36.5t1.5 54.5v281h31v-519zM310 527h70l-111 174l-39 39l-9 14h-78l115 -180h5zM264 584l-102 160h53l102 -160h-53z" />
<glyph unicode="&#xfa;" d="M57 0zM461 529h-51v-291q0 -26 -1.5 -48.5t-3.5 -41.5v1q-22 -124 -161 -124q-42 0 -75 14q-14 36 -14 93v344l-47 47v6h-51v-357q0 -120 71 -167l30 -28q47 -46 137 -46q86 0 138 43l30 -30h45v532l-47 47v6zM451 0h-31v81q-50 -93 -175 -93q-178 0 -178 184v347h31 v-337q0 -82 31 -122q34 -45 115 -45q148 0 171 132q2 14 3.5 36.5t1.5 54.5v281h31v-519zM186 574h9l47 -47h71l110 174l-48 47l4 6h-78zM307 744h53l-101 -160h-54z" />
<glyph unicode="&#xfb;" d="M57 0zM461 529h-51v-291q0 -26 -1.5 -48.5t-3.5 -41.5v1q-22 -124 -161 -124q-42 0 -75 14q-14 36 -14 93v344l-47 47v6h-51v-357q0 -120 71 -167l30 -28q47 -46 137 -46q86 0 138 43l30 -30h45v532l-47 47v6zM451 0h-31v81q-50 -93 -175 -93q-178 0 -178 184v347h31 v-337q0 -82 31 -122q34 -45 115 -45q148 0 171 132q2 14 3.5 36.5t1.5 54.5v281h31v-519zM118 574h9l47 -47h55l70 108l43 -66h4l48 -47l52 6l-107 173l-40 39l-8 14h-60zM237 744h48l99 -160l-36 -4l-87 136l-86 -132h-38z" />
<glyph unicode="&#xfc;" d="M57 0zM461 529h-51v-291q0 -26 -1.5 -48.5t-3.5 -41.5v1q-22 -124 -161 -124q-42 0 -75 14q-14 36 -14 93v344l-47 47v6h-51v-357q0 -120 71 -167l30 -28q47 -46 137 -46q86 0 138 43l30 -30h45v532l-47 47v6zM451 0h-31v81q-50 -93 -175 -93q-178 0 -178 184v347h31 v-337q0 -82 31 -122q34 -45 115 -45q148 0 171 132q2 14 3.5 36.5t1.5 54.5v281h31v-519zM153 661q0 -50 22 -57l43 -42q6 -6 16 -6q29 0 29 55q0 36 -12 48l-41 41q-8 18 -26 18q-31 0 -31 -57zM307 663q0 -51 23 -57l42 -41q7 -7 17 -7q29 0 29 55q0 35 -12 47l-40 40 q-7 19 -27 19q-32 0 -32 -56zM317 663q0 46 22 46t22 -46q0 -48 -22 -48t-22 48zM163 661q0 47 21 47q22 0 22 -47q0 -48 -22 -48q-21 0 -21 48z" />
<glyph unicode="&#xfd;" d="M52 0zM158 146v341l-47 47v6h-52v-354q0 -120 71 -167l30 -29q46 -46 137 -46q65 0 112 27v-7q-4 -24 -15 -47q-42 -81 -151 -81q-49 0 -87 20q-4 10 -6.5 22.5t-3.5 27.5l-47 47v6h-47q1 -50 15 -78q10 -20 50 -59l29 -29q51 -51 140 -51q179 0 215 148q10 39 10 72v525 l-47 47v6h-52v-288q0 -27 -1.5 -49.5t-3.5 -39.5v1q-23 -125 -161 -125q-41 0 -74 14q-14 36 -14 93zM444 -58q-33 -143 -208 -143q-76 0 -122 37q-51 40 -52 113h27q3 -63 49 -94q41 -29 105 -29q70 0 116 34q50 36 60 103q3 19 3 53v80q-50 -96 -175 -96q-178 0 -178 186 v344h32v-334q0 -83 30 -122q34 -45 115 -45q147 0 171 133q2 14 3.5 36.5t1.5 53.5v278h32v-519q0 -28 -10 -69zM146 574h9l47 -47h71l110 174l-48 47l4 6h-78zM267 744h53l-101 -160h-54z" />
<glyph unicode="&#xfe;" horiz-adv-x="572" d="M158 655l-47 47v6h-52v-903h6l47 -47h46v260q1 -1 2.5 -2t3.5 -3l28 -26q59 -56 155 -56q119 0 181 81q55 73 55 196q0 142 -77 219l-23 23q-1 1 -1.5 2t-1.5 2q-62 86 -183 86q-87 0 -139 -43v158zM101 -185h-32v883h32v-298q51 130 196 130q113 0 175 -81 q54 -74 54 -191q0 -119 -54 -191q-60 -79 -175 -79q-145 0 -196 124v-297zM297 502q-100 0 -151 -75q-45 -65 -45 -169q0 -105 45 -169q51 -75 151 -75q99 0 152 75q45 64 45 169q0 104 -45 169q-53 75 -152 75zM158 208q0 102 43 164q49 73 146 73q52 0 93 -23v-1h1 q43 -62 43 -163t-42 -162q-50 -72 -145 -72q-61 0 -103 30q-36 61 -36 154z" />
<glyph unicode="&#xff;" d="M52 0zM158 146v341l-47 47v6h-52v-354q0 -120 71 -167l30 -29q46 -46 137 -46q65 0 112 27v-7q-4 -24 -15 -47q-42 -81 -151 -81q-49 0 -87 20q-4 10 -6.5 22.5t-3.5 27.5l-47 47v6h-47q1 -50 15 -78q10 -20 50 -59l29 -29q51 -51 140 -51q179 0 215 148q10 39 10 72v525 l-47 47v6h-52v-288q0 -27 -1.5 -49.5t-3.5 -39.5v1q-23 -125 -161 -125q-41 0 -74 14q-14 36 -14 93zM444 -58q-33 -143 -208 -143q-76 0 -122 37q-51 40 -52 113h27q3 -63 49 -94q41 -29 105 -29q70 0 116 34q50 36 60 103q3 19 3 53v80q-50 -96 -175 -96q-178 0 -178 186 v344h32v-334q0 -83 30 -122q34 -45 115 -45q147 0 171 133q2 14 3.5 36.5t1.5 53.5v278h32v-519q0 -28 -10 -69zM113 661q0 -50 22 -57l43 -42q6 -6 16 -6q29 0 29 55q0 36 -12 48l-41 41q-8 18 -26 18q-31 0 -31 -57zM267 663q0 -51 23 -57l42 -41q7 -7 17 -7q29 0 29 55 q0 35 -12 47l-40 40q-7 19 -27 19q-32 0 -32 -56zM277 663q0 46 22 46t22 -46q0 -48 -22 -48t-22 48zM123 661q0 47 21 47q22 0 22 -47q0 -48 -22 -48q-21 0 -21 48z" />
<glyph unicode="&#x131;" horiz-adv-x="175" d="M62 -9h6l47 -47h45v532l-47 47v6h-51v-538zM72 519h31v-519h-31v519z" />
<glyph unicode="&#x152;" horiz-adv-x="957" d="M370 745q-165 0 -250 -115q-78 -102 -78 -271q0 -166 77 -270q13 -17 26 -30t27 -24l25 -25q82 -81 223 -81q63 0 113 15h451v47l-47 46v6h-267q75 99 76 259h144v46l-47 47v6h-104q-20 130 -99 210l-20 20h354v46l-47 47v6h-450q-53 15 -107 15zM478 720h439v-32h-372 q134 -89 143 -297h145v-32h-144q0 -164 -76 -264q-29 -38 -65 -62h379v-33h-446q-51 -14 -111 -14q-160 0 -244 109q-74 100 -74 264q0 163 75 264q84 112 243 112q61 0 108 -16v1zM478 687q-48 18 -108 18q-145 0 -218 -105q-65 -92 -65 -241t65 -241q74 -104 218 -104 q60 0 108 18v655zM370 24q-100 0 -165 52q-61 91 -61 233q0 146 63 236q72 103 213 103q12 0 24 -1t24 -3v-605q-48 -15 -98 -15zM512 359v-310q142 85 142 310h-142zM512 391h141q-7 114 -52 189l-1 1v1q-34 55 -88 88v-279zM580 594q52 -68 61 -193h-72v206q0 -1 2 -1z M569 110v192h72q-15 -135 -72 -192zM602 580h-1q-1 1 -1 2z" />
<glyph unicode="&#x153;" horiz-adv-x="825" d="M790 122l-45 24q-44 -122 -164 -122q-36 0 -64 12q39 66 41 163h297v26q0 137 -69 203l-25 24l-6 9q-52 79 -174 79q-92 0 -153 -57q-63 57 -156 57q-119 0 -182 -86q-56 -77 -56 -196q0 -120 56 -197q20 -27 45 -44l26 -25q61 -61 161 -61q95 0 157 57q58 -57 152 -57 q79 0 138 45v1q46 36 67 94l-48 47zM581 -12q-95 0 -152 59q-59 -59 -157 -59q-115 0 -175 80q-53 71 -53 190q0 116 54 190q60 82 174 82q99 0 157 -61q57 61 152 61q107 0 166 -75q51 -66 51 -180v-19h-297q0 -112 -51 -184q49 -58 131 -58q127 0 170 118l26 -14 q-23 -63 -75 -96.5t-121 -33.5zM410 71q-50 74 -50 187q0 115 50 186q-51 58 -138 58q-100 0 -151 -75q-45 -65 -45 -169q0 -105 45 -169q51 -75 151 -75q87 0 138 57zM272 24q-61 0 -103 30q-36 61 -36 154q0 102 43 164q49 73 146 73q37 0 69 -12q-41 -74 -41 -175 q0 -109 47 -186q-51 -48 -125 -48zM764 285q0 91 -43 150q-48 67 -135 67q-85 0 -135 -59q44 -64 49 -158h264zM510 392q47 53 126 53q44 0 79 -20q35 -51 39 -130h-205q-10 49 -39 97zM394 256v-8q0 -88 37 -149q38 65 38 157h-75zM468 285q-5 76 -37 131q-32 -53 -36 -131 h73zM451 199h3q-2 -7 -3 -16v16z" />
<glyph unicode="&#x178;" horiz-adv-x="530" d="M0 0zM238 -9h6l47 -47h47v319l253 413l-48 47l4 6h-63l-211 -345l-180 292l-40 40l-8 13h-62l255 -417v-321zM248 318l-247 401h38l227 -367l224 367h38l-247 -403v-316h-33v318zM157 866q0 -50 22 -57l43 -42q6 -6 16 -6q29 0 29 55q0 36 -12 48l-41 41q-8 18 -26 18 q-31 0 -31 -57zM311 868q0 -51 23 -57l42 -41q7 -7 17 -7q29 0 29 55q0 35 -12 47l-40 40q-7 19 -27 19q-32 0 -32 -56zM321 868q0 46 22 46t22 -46q0 -48 -22 -48t-22 48zM167 866q0 47 21 47q22 0 22 -47q0 -48 -22 -48q-21 0 -21 48z" />
<glyph unicode="&#x2c6;" horiz-adv-x="500" d="M107 574h9l47 -47h55l70 108l43 -66h4l48 -47l52 6l-107 173l-40 39l-8 14h-60zM226 744h48l99 -160l-36 -4l-87 136l-86 -132h-38z" />
<glyph unicode="&#x2dc;" horiz-adv-x="500" d="M358 724q-1 -1 -3 -7l-4 -10q-2 -3 -4 -11q-5 -11 -12 -28v1q-13 -22 -31 -22q-12 0 -47 32q-42 39 -61 39q-40 0 -84 -86l31 -31q0 2 1 3l48 -48q34 63 54 64h1q10 0 38 -28l5 -5q38 -39 64 -37q30 1 48 24l1 1q6 10 15 27q1 2 2.5 4.5t3.5 6.5l2 2q2 4 4.5 8t4.5 8 l-26 37l-39 39zM376 681q-7 -12 -14 -25t-15 -27q-16 -21 -43 -22q-16 0 -60 35q-42 36 -48 35q-26 -2 -56 -59l-16 16q38 74 72 74q14 0 53 -36q40 -35 55 -35q25 0 40 27q4 10 8 19.5t9 18.5z" />
<glyph unicode="&#x2000;" horiz-adv-x="486" />
<glyph unicode="&#x2001;" horiz-adv-x="973" />
<glyph unicode="&#x2002;" horiz-adv-x="486" />
<glyph unicode="&#x2003;" horiz-adv-x="973" />
<glyph unicode="&#x2004;" horiz-adv-x="324" />
<glyph unicode="&#x2005;" horiz-adv-x="243" />
<glyph unicode="&#x2006;" horiz-adv-x="162" />
<glyph unicode="&#x2007;" horiz-adv-x="162" />
<glyph unicode="&#x2008;" horiz-adv-x="121" />
<glyph unicode="&#x2009;" horiz-adv-x="194" />
<glyph unicode="&#x200a;" horiz-adv-x="54" />
<glyph unicode="&#x2010;" horiz-adv-x="603" d="M566 226v44l-47 47v6h-405v-50h6l47 -47h399zM509 283h-385v30h385v-30z" />
<glyph unicode="&#x2011;" horiz-adv-x="603" d="M566 226v44l-47 47v6h-405v-50h6l47 -47h399zM509 283h-385v30h385v-30z" />
<glyph unicode="&#x2012;" horiz-adv-x="603" d="M566 226v44l-47 47v6h-405v-50h6l47 -47h399zM509 283h-385v30h385v-30z" />
<glyph unicode="&#x2013;" horiz-adv-x="500" d="M-9 238h6l46 -47h514v35l-47 47v6h-519v-41zM0 269h500v-21h-500v21z" />
<glyph unicode="&#x2014;" horiz-adv-x="1000" d="M-9 279v-41h6l46 -47h1014v35l-47 47v6h-1019zM1000 269v-21h-1000v21h1000z" />
<glyph unicode="&#x2018;" horiz-adv-x="237" d="M124 449h48l1 2q12 1 22.5 7t19 15.5t13.5 21t5 23.5q0 23 -10 33l-19 19l28 114l-48 47l2 6l-55 1l-61 -242h7zM118 506h-35l56 222l34 -1l-30 -123q33 0 33 -36q0 -22 -17.5 -41t-39.5 -19z" />
<glyph unicode="&#x2019;" horiz-adv-x="237" d="M73 666q0 -32 21 -42l8 -9l-29 -119h7l47 -47h50l58 235l-48 47l2 6l-54 1l-2 -5q-23 -8 -41 -24q-19 -19 -19 -43zM142 728l34 -1l-55 -221h-35l31 123q-34 0 -34 37q0 22 18 40.5t40 18.5z" />
<glyph unicode="&#x201a;" horiz-adv-x="237" d="M58 45q0 -30 20 -41l9 -7l-29 -119h7l47 -47h49l59 233l-48 47l2 6h-58v-3q-23 -5 -40.5 -25.5t-17.5 -43.5zM126 105v2h35l-56 -219h-34l31 121q-34 0 -34 36q0 10 5 21t13 19.5t18 14t21 5.5h1z" />
<glyph unicode="&#x201c;" horiz-adv-x="354" d="M223 551l-19 19l28 114l-48 47l2 6l-55 1l-61 -242h7l47 -47h48l1 2q36 4 54 42l44 -44h47l1 2q24 2 42 22.5t18 44.5q0 22 -11 33l-18 18l29 115l-48 47l2 6l-55 1l-50 -196l-2 4t-3 5zM118 506h-35l56 222l34 -1l-30 -123q33 0 33 -36q0 -22 -17.5 -41t-39.5 -19z M265 508l-1 -2h-34l56 222l34 -1l-31 -123h1q32 0 32 -36q0 -22 -17 -41t-39 -19h-1z" />
<glyph unicode="&#x201d;" horiz-adv-x="354" d="M73 666q0 -32 21 -42l8 -9l-29 -119h7l47 -47h50l47 191q6 -13 19 -19l6 -5l-29 -120h7l47 -47h49l58 235l-48 47l2 6l-57 1v-4q-35 -6 -52 -42l-39 39l2 6l-54 1l-2 -5q-23 -8 -41 -24q-19 -19 -19 -43zM142 728l34 -1l-55 -221h-35l31 123q-34 0 -34 37q0 22 18 40.5 t40 18.5zM288 725v3l34 -1l-55 -221h-34l31 123h-1q-33 0 -33 37q0 22 17.5 40.5t39.5 18.5h1z" />
<glyph unicode="&#x201e;" horiz-adv-x="381" d="M49 44q0 -37 24 -44l5 -4l-29 -119h7l47 -47l49 -1l47 192q6 -13 18 -19l8 -6l-30 -119h7l47 -47l50 -1l58 233l-48 47l2 6l-53 1l-2 -4q-36 -11 -54 -43l-40 40l2 6l-57 1v-3q-24 -4 -41 -24.5t-17 -44.5zM264 106l34 -1l-55 -219l-35 1l31 120q-33 0 -33 37 q0 22 17.5 41t39.5 19zM117 104v2l34 -1l-55 -219l-34 1l31 120h-1q-33 0 -33 37q0 22 17.5 41t39.5 19h1z" />
<glyph unicode="&#x2022;" horiz-adv-x="590" d="M235 213q43 -43 109 -43q65 0 108 43q44 44 44 109t-43 108l-29 29l-19 23q-44 44 -110 44q-68 0 -112 -44q-43 -43 -43 -110q0 -80 65 -130zM439 372q0 -62 -42 -104q-41 -41 -103 -41q-32 0 -58.5 10.5t-45.5 30t-29.5 46t-10.5 58.5t11 58.5t30 45.5t45.5 29.5 t58.5 10.5q62 0 103 -41t41 -103zM327 372q0 33 -33 33t-33 -33q0 -32 33 -32t33 32z" />
<glyph unicode="&#x2026;" horiz-adv-x="1000" d="M140 41q0 -47 23 -55l42 -42q6 -6 17 -6q29 0 29 54q0 34 -12 46l-40 40q-7 19 -27 19q-32 0 -32 -56zM473 41q0 -47 23 -55l42 -42q6 -6 17 -6q29 0 29 54q0 34 -12 46l-40 40q-7 19 -27 19q-32 0 -32 -56zM807 41q0 -47 23 -55l42 -42q6 -6 17 -6q29 0 29 54 q0 34 -12 46l-40 40q-7 19 -27 19q-32 0 -32 -56zM150 41q0 46 22 46t22 -46t-22 -46t-22 46zM817 41q0 46 22 46t22 -46t-22 -46t-22 46zM483 41q0 46 22 46t22 -46t-22 -46t-22 46z" />
<glyph unicode="&#x202f;" horiz-adv-x="194" />
<glyph unicode="&#x2039;" horiz-adv-x="248" d="M217 391l2 3l-43 29l-135 -167l135 -167l3 2l48 -48l36 26l-109 137l111 137zM96 256l107 -135l-25 -19l-125 154l125 154l27 -19z" />
<glyph unicode="&#x203a;" horiz-adv-x="248" d="M42 120l19 -16l35 -34l35 -27l132 163l-132 163l-28 28l-21 26l-43 -29l110 -138zM162 256l-109 135l27 19l125 -154l-125 -154l-24 19z" />
<glyph unicode="&#x205f;" horiz-adv-x="243" />
<glyph unicode="&#x20ac;" horiz-adv-x="681" d="M59 455l-17 -50h7l47 -47h21v-27h-74l-15 -51h7l47 -47h43q25 -165 112 -221l27 -26q49 -49 123 -49q83 0 136 59q46 52 62 138l-48 47v2q1 1 1 2l-46 36q-30 -181 -158 -181q-38 0 -66 19q-20 33 -34 93q-5 18 -8.5 38t-5.5 43h217l15 45l-48 47l2 6h-188v14q1 4 1 7v6 h262l15 44l-48 48l2 5h-219q4 17 10 36t16 40q47 101 130 101q33 0 60 -13q21 -28 39 -94l4 3l48 -48l43 30q-19 77 -56 114l-5 5q-2 2 -3 4l-2 1l1 -1l-26 27q-2 2 -5 6.5t-8 9.5q-56 62 -135 62q-118 0 -176 -120q-31 -61 -45 -163h-62zM131 445q5 49 16 91.5t28 77.5 q55 114 167 114q70 0 119 -49q42 -42 62 -116l-30 -21q-35 147 -156 147q-90 0 -136 -105q-27 -62 -36 -139h271l-10 -30h-263q-1 -14 -1.5 -28.5t-0.5 -28.5v-37h231l-10 -31h-219q8 -93 36 -157q46 -103 135 -103q136 0 165 173l28 -22q-14 -83 -60 -132q-51 -55 -130 -55 q-108 0 -163 111q-37 75 -45 185h-87l9 31h76v65v15t1 14h-72l10 30h65zM507 641l-1 1q1 0 1 -1z" />
<glyph unicode="&#x2122;" horiz-adv-x="833" d="M394 719v-51l-45 45v6h-220v-40h6l47 -47h34v-190h6l47 -47h42v237h83v-190h6l47 -47h38v200l43 -59l4 1l47 -47l14 4l33 47v-99h6l47 -47h37v271l-47 47v6h-58l-72 -109l-38 56l-40 39l-9 14h-58zM447 709l88 -125l82 125h42v-257h-23v239l-97 -141l-7 -2l-104 143v-239 h-24v257h43zM339 709v-20h-85v-237h-28v237h-87v20h200z" />
<glyph unicode="&#xe000;" horiz-adv-x="530" d="M0 530h530v-530h-530v530z" />
<glyph d="M0 0z" />
</font>
</defs>
</svg>
